<svg width="51" height="32" viewBox="0 0 51 32" fill="none" xmlns="http://www.w3.org/2000/svg">
<path d="M0.833313 20.4982C1.12628 19.0333 1.37042 17.5587 1.72198 16.1134C2.40558 13.3204 3.08917 10.5275 3.88995 7.76379C5.08136 3.66223 8.763 0.830195 13.0208 0.664179C20.4427 0.371211 27.8548 0.351679 35.2767 0.556757C36.8978 0.605586 38.5579 0.556757 40.14 0.869257C44.0169 1.64074 46.6146 4.03332 47.7864 7.80285C49.0169 11.7286 49.9544 15.7325 50.6966 19.7853C50.7357 20.0196 50.7845 20.2638 50.8333 20.4982C50.8333 21.1134 50.8333 21.7384 50.8333 22.3536C50.7064 22.9493 50.6185 23.5646 50.4427 24.1505C48.8411 29.8146 43.1771 32.4415 38.2552 31.3282C37.7474 31.2111 37.4739 30.8497 37.5618 30.4396C37.6595 29.9806 38.0599 29.795 38.6458 29.9122C41.5462 30.4884 44.1732 29.8829 46.3802 27.9298C48.9388 25.6739 49.8568 22.7833 49.1146 19.463C48.2943 15.7716 47.4056 12.09 46.4193 8.43762C45.4134 4.71691 42.3665 2.3634 38.5189 2.12902C37.9915 2.09973 37.4544 2.08019 36.888 2.0509C36.8489 2.48059 36.8196 2.86144 36.7708 3.2423C36.5169 5.26379 34.9349 6.77746 32.8939 6.80676C28.763 6.85559 24.6126 6.84582 20.4622 6.85559C20.3646 6.85559 20.2669 6.85559 20.1693 6.84582C19.7298 6.79699 19.4661 6.52355 19.4759 6.12316C19.4759 5.72277 19.7493 5.4298 20.1888 5.40051C20.5403 5.38098 20.9017 5.4298 21.263 5.42004C25.1204 5.40051 28.9778 5.39074 32.8353 5.34191C34.1634 5.32238 35.1595 4.39465 35.345 3.06652C35.3939 2.74426 35.3939 2.42199 35.4329 2.01184C29.0462 1.83605 22.6985 1.84582 16.3509 2.00207C16.0775 3.10559 16.5657 4.29699 17.513 4.95129C17.6985 5.07824 17.9427 5.24426 17.972 5.42004C18.011 5.67394 17.9427 6.00598 17.7962 6.21105C17.6009 6.48449 17.2591 6.49426 16.9564 6.31848C15.804 5.67394 15.1009 4.70715 14.8958 3.39855C14.8275 2.96887 14.8079 2.52941 14.7689 2.09973C10.3646 1.74816 6.5462 4.00402 5.24738 8.3009C4.09503 12.129 3.138 16.0157 2.42511 19.9513C1.5755 24.6486 4.79816 29.1505 9.55402 29.9611C13.8607 30.7032 18.011 28.2814 19.3294 24.2579C19.3489 24.1798 19.3685 24.1114 19.388 24.0431C16.8489 22.7345 15.9212 21.1134 16.4681 18.9747C16.9368 17.1583 18.6946 15.8497 20.5696 15.9181C22.7571 16.006 24.0755 17.3829 24.5833 20.1368C25.4134 20.1368 26.2435 20.1368 27.0735 20.1368C27.679 17.2755 29.0169 15.9181 31.2239 15.9083C33.1478 15.9083 34.7982 17.2364 35.2278 19.1407C35.6966 21.2208 34.6907 22.8907 32.2689 24.0236C32.5911 25.1661 33.138 26.1915 33.9388 27.0607C34.5052 27.6759 35.179 28.2032 35.8431 28.7208C36.3118 29.0919 36.4681 29.4825 36.1946 29.8634C35.9407 30.2247 35.5208 30.2638 35.0325 29.9415C33.011 28.6232 31.6048 26.8263 30.8919 24.5118C30.7942 24.1896 30.638 24.0626 30.306 23.9845C29.1341 23.7208 28.2357 23.0568 27.6692 21.9923C27.513 21.7091 27.347 21.6114 27.0247 21.6212C26.1946 21.6407 25.3646 21.6114 24.5345 21.6407C24.3685 21.6505 24.1439 21.7775 24.056 21.9239C23.4114 23.0275 22.5032 23.7306 21.2532 24.0236C21.0775 24.0626 20.8724 24.2579 20.8138 24.4337C19.4368 28.4181 16.6732 30.84 12.5325 31.4552C7.07355 32.2755 1.79034 28.6329 0.930969 22.8126C0.911438 22.6857 0.872375 22.5685 0.833313 22.4415C0.833313 21.797 0.833313 21.1427 0.833313 20.4982ZM33.8607 20.0392C33.8704 18.5841 32.6985 17.3829 31.2532 17.3829C29.8177 17.3732 28.6068 18.5743 28.6068 20.0196C28.6068 21.4454 29.7884 22.6368 31.2044 22.6466C32.6693 22.6564 33.8509 21.504 33.8607 20.0392ZM20.4427 22.6466C21.8685 22.6466 23.0501 21.4747 23.0696 20.0489C23.0892 18.6134 21.888 17.3927 20.4525 17.3829C18.9974 17.3732 17.8157 18.5548 17.8157 20.0196C17.806 21.4845 18.9681 22.6466 20.4427 22.6466Z" fill="#EE2E24"/>
<path d="M8.55794 9.93164C8.95833 7.92969 9.92512 6.99219 11.556 6.99219C13.1771 7.00195 14.1829 7.97852 14.5443 9.92188C16.595 10.4199 17.513 11.3672 17.4935 12.959C17.474 14.5508 16.5072 15.5273 14.5443 15.9375C14.1829 17.8711 13.1771 18.8672 11.5657 18.877C9.96419 18.8867 8.9388 17.9004 8.55794 15.918C7.6009 15.8398 6.7513 15.498 6.15559 14.668C5.73567 14.0918 5.57942 13.4473 5.60872 12.7344C5.67708 11.25 6.59505 10.3613 8.55794 9.93164ZM7.07356 12.9102C7.0638 13.7207 7.60091 14.3164 8.43098 14.4141C8.70442 14.4434 8.98762 14.4238 9.26106 14.4434C9.74934 14.4727 10.0032 14.7168 10.0325 15.1953C10.0521 15.4883 10.0423 15.7812 10.0814 16.0742C10.179 16.8945 10.7552 17.4121 11.5462 17.4121C12.347 17.4121 12.9525 16.8457 13.0306 16.0254C13.0501 15.8203 13.0404 15.6055 13.0501 15.3906C13.0697 14.6875 13.2943 14.4531 13.9876 14.4336C14.2904 14.4238 14.6126 14.4238 14.9056 14.3555C15.599 14.209 16.0482 13.6035 16.0384 12.9004C16.0286 12.1875 15.5599 11.6113 14.8568 11.4844C14.5443 11.4258 14.2122 11.4258 13.89 11.416C13.3236 11.3867 13.0697 11.1426 13.0501 10.5664C13.0404 10.293 13.0599 10.0098 13.0208 9.73633C12.9232 8.95508 12.3275 8.44727 11.556 8.44727C10.7747 8.44727 10.1986 8.94531 10.0911 9.72656C10.0521 10.0293 10.0521 10.3418 10.0325 10.6543C9.99348 11.1426 9.74934 11.377 9.26106 11.416C8.91926 11.4355 8.57747 11.4258 8.24544 11.4844C7.53255 11.6211 7.08333 12.1973 7.07356 12.9102Z" fill="#F99B2A"/>
<path d="M25.9603 13.6624C25.2474 13.6624 24.5247 13.6722 23.8118 13.6624C22.6595 13.6526 21.7611 12.8128 21.7025 11.7191C21.6439 10.5569 22.4154 9.58038 23.5872 9.52179C25.1595 9.45343 26.7415 9.45343 28.3138 9.53156C29.4271 9.58038 30.2376 10.5765 30.1986 11.6409C30.1497 12.7737 29.2611 13.6429 28.1087 13.6624C27.3958 13.6722 26.6829 13.6624 25.9603 13.6624ZM25.9407 12.1976C26.6243 12.1976 27.3079 12.1878 27.9818 12.1976C28.4017 12.2073 28.6751 12.0218 28.7239 11.6019C28.763 11.2405 28.47 10.9671 28.0208 10.9671C26.6439 10.9573 25.2669 10.9573 23.8802 10.9671C23.4114 10.9671 23.1673 11.2112 23.1673 11.5921C23.1673 11.973 23.4212 12.1976 23.89 12.1976C24.5833 12.2073 25.2571 12.1976 25.9407 12.1976Z" fill="#F99B2A"/>
<path d="M42.015 7.90045C43.5579 7.89068 44.847 9.17974 44.8372 10.7325C44.8372 12.2852 43.5579 13.5645 42.0052 13.5547C40.472 13.5547 39.2024 12.295 39.1927 10.7715C39.1829 9.16998 40.4329 7.90045 42.015 7.90045ZM41.9954 9.36529C41.2435 9.37506 40.6575 9.99029 40.6673 10.752C40.6771 11.4844 41.2825 12.0801 42.0052 12.0801C42.7474 12.0801 43.3724 11.4551 43.3626 10.7129C43.3626 9.97076 42.7474 9.35552 41.9954 9.36529Z" fill="#F99B2A"/>
<path d="M40.4134 15.1465C40.4134 16.7187 39.1634 17.9687 37.5911 17.959C36.0286 17.959 34.7591 16.6895 34.7689 15.1367C34.7786 13.5742 36.0384 12.3145 37.6009 12.3047C39.1439 12.3047 40.4134 13.584 40.4134 15.1465ZM38.9388 15.1172C38.929 14.3848 38.3333 13.7891 37.6107 13.7793C36.8685 13.7695 36.2532 14.3848 36.2532 15.1465C36.2532 15.9082 36.8489 16.5039 37.6107 16.4941C38.3724 16.4844 38.9485 15.8887 38.9388 15.1172Z" fill="#F99B2A"/>
</svg>
