<svg width="34" height="44" viewBox="0 0 34 44" fill="none" xmlns="http://www.w3.org/2000/svg">
<path d="M14.1589 39.6515C14.0214 39.3163 13.669 39.0929 13.3081 39.1273C12.9471 39.153 12.6464 39.4023 12.5432 39.746C12.4401 40.0898 12.5776 40.4679 12.8698 40.6827C13.1534 40.889 13.5573 40.8976 13.8495 40.6999C14.176 40.4679 14.3135 40.021 14.1589 39.6515Z" fill="#EE2E24"/>
<path d="M17.7424 4.94141H18.4643C18.937 4.94141 19.3237 4.55469 19.3237 4.08203C19.3237 3.60938 18.937 3.22266 18.4643 3.22266H17.7424C17.2698 3.22266 16.8831 3.60938 16.8831 4.08203C16.8831 4.55469 17.2698 4.94141 17.7424 4.94141Z" fill="#F99B2A"/>
<path d="M8.26352 4.94141H14.1073C14.5799 4.94141 14.9666 4.55469 14.9666 4.08203C14.9666 3.60938 14.5799 3.22266 14.1073 3.22266H8.26352C7.79086 3.22266 7.40414 3.60938 7.40414 4.08203C7.40414 4.55469 7.79086 4.94141 8.26352 4.94141Z" fill="#F99B2A"/>
<path d="M23.0448 17.8494C21.6612 17.8494 20.544 18.9751 20.544 20.3501C20.544 21.7251 21.6612 22.8595 23.0448 22.8595C24.4284 22.8595 25.5455 21.7337 25.5455 20.3587C25.5455 18.9837 24.4198 17.8494 23.0448 17.8494ZM23.0448 21.1408C22.6151 21.1408 22.2627 20.7884 22.2627 20.3587C22.2627 19.9291 22.6151 19.5767 23.0448 19.5767C23.4744 19.5767 23.8268 19.9291 23.8268 20.3587C23.8268 20.7884 23.4744 21.1408 23.0448 21.1408Z" fill="#F99B2A"/>
<path d="M14.8463 19.6367C14.7604 19.6109 14.6831 19.5765 14.6057 19.5507V17.6C14.7518 17.6687 14.8463 17.7546 14.9065 17.832C15.1815 18.2187 15.7143 18.3132 16.101 18.0382C16.4877 17.7632 16.5823 17.2304 16.3073 16.8437C15.9721 16.3625 15.3706 15.9585 14.5971 15.8039V15.7781C14.5971 15.3054 14.2104 14.9187 13.7377 14.9187C13.2651 14.9187 12.8784 15.3054 12.8784 15.7781V15.864C12.801 15.8812 12.7323 15.8984 12.6549 15.9242C11.7096 16.2078 10.9877 17.1273 10.9104 18.1585C10.8331 19.1812 11.3745 20.0664 12.3627 20.5304C12.4831 20.582 12.6549 20.6593 12.8784 20.7453V23.1601C12.612 23.057 12.3799 22.9109 12.2252 22.7132C11.9245 22.3437 11.3831 22.2835 11.0135 22.5843C10.644 22.8851 10.5838 23.4265 10.8846 23.796C11.4002 24.432 12.1393 24.7843 12.8784 24.9562C12.887 25.4203 13.2737 25.7898 13.7377 25.7898C14.1846 25.7898 14.5541 25.446 14.5971 25.0164C15.9034 24.8015 16.8229 23.9507 16.969 22.7734C17.1495 21.4328 16.2729 20.1437 14.8463 19.6367ZM12.6377 18.2875C12.6549 18.0812 12.7495 17.8835 12.887 17.746V18.846C12.7065 18.7 12.6206 18.5109 12.6377 18.2875ZM15.276 22.5585C15.2331 22.8851 15.001 23.1257 14.6143 23.2546V21.4156C15.1213 21.7164 15.319 22.189 15.276 22.5585Z" fill="#F99B2A"/>
<path d="M30.9081 7.81172H26.2846V5.55156C26.2846 2.49219 23.7924 0 20.7331 0H5.99477C2.93539 0 0.443207 2.49219 0.443207 5.55156V38.4484C0.443207 41.5078 2.93539 44 5.99477 44H20.7331C23.7924 44 26.2846 41.5078 26.2846 38.4484V32.8969H30.9081C32.5495 32.8969 33.8901 31.5562 33.8901 29.9148V10.7937C33.8901 9.14375 32.5581 7.81172 30.9081 7.81172ZM20.7331 42.2812H5.99477C3.88071 42.2812 2.16196 40.5625 2.16196 38.4484V37.632H24.5659V38.4484C24.5659 40.5625 22.8471 42.2812 20.7331 42.2812ZM24.5659 35.9133H2.16196V5.55156C2.16196 3.4375 3.88071 1.71875 5.99477 1.71875H20.7331C22.8471 1.71875 24.5659 3.4375 24.5659 5.55156V7.81172H9.12289V7.46797C9.12289 6.99531 8.73618 6.60859 8.26352 6.60859C7.79086 6.60859 7.40414 6.99531 7.40414 7.46797V33.1375C7.40414 33.6102 7.79086 33.9969 8.26352 33.9969C8.73618 33.9969 9.12289 33.6102 9.12289 33.1375V32.9055H24.5659V35.9133ZM9.12289 13.3117H24.9268C25.2791 15.0477 26.6541 16.4055 28.3987 16.732V23.9852C26.6541 24.3031 25.2791 25.6695 24.9268 27.4055H9.12289V13.3117ZM32.1713 29.9148C32.1713 30.6109 31.6041 31.1781 30.9081 31.1781H9.12289V29.1156H25.7002C26.1729 29.1156 26.5596 28.7289 26.5596 28.2562C26.5596 26.8039 27.737 25.6266 29.1893 25.6266C29.2065 25.6266 29.2237 25.6266 29.2409 25.6266C29.4643 25.6352 29.6963 25.5406 29.8596 25.3773C30.0229 25.2141 30.1174 24.9906 30.1174 24.7672V15.9414C30.1174 15.7094 30.0229 15.4859 29.8596 15.3312C29.6963 15.168 29.4729 15.082 29.2409 15.082C29.2237 15.082 29.2065 15.082 29.1893 15.082C27.737 15.082 26.5596 13.9047 26.5596 12.4523C26.5596 11.9797 26.1729 11.593 25.7002 11.593H9.12289V9.53047H30.9166C31.6127 9.53047 32.1799 10.0977 32.1799 10.7937L32.1713 29.9148Z" fill="#EE2E24"/>
</svg>
