<svg width="16" height="13" viewBox="0 0 16 13" fill="none" xmlns="http://www.w3.org/2000/svg">
<path d="M13.844 0.919922H1.65649C0.865479 0.919922 0.250244 1.56445 0.250244 2.32617V10.7637C0.250244 11.5547 0.865479 12.1699 1.65649 12.1699H13.844C14.6057 12.1699 15.2502 11.5547 15.2502 10.7637V2.32617C15.2502 1.56445 14.6057 0.919922 13.844 0.919922ZM13.844 2.32617V3.52734C13.1702 4.08398 12.1155 4.9043 9.88892 6.66211C9.39087 7.04297 8.42407 7.98047 7.75024 7.95117C7.04712 7.98047 6.08032 7.04297 5.58228 6.66211C3.35571 4.9043 2.30103 4.08398 1.65649 3.52734V2.32617H13.844ZM1.65649 10.7637V5.34375C2.30103 5.87109 3.26782 6.63281 4.70337 7.77539C5.3479 8.27344 6.49048 9.38672 7.75024 9.35742C8.98071 9.38672 10.094 8.27344 10.7678 7.77539C12.2034 6.63281 13.1702 5.87109 13.844 5.34375V10.7637H1.65649Z" fill="white"/>
</svg>
