<svg width="166" height="44" viewBox="0 0 166 44" fill="none" xmlns="http://www.w3.org/2000/svg">
<path d="M25.6123 9.89693H31.8227V34.0119H25.6123V9.89693ZM42.646 22.2859C45.1017 22.2859 46.8549 21.078 46.8549 18.5723C46.8549 16.1183 45.2057 15.0142 42.6844 15.0142H40.9051V22.2859H42.646ZM85.6543 28.5181H94.0091V34.0119H79.353V9.89693H85.6543V28.5181ZM96.0236 9.89693H111.888V15.3777H102.234V19.3768H111.46V24.4414H102.234V28.5181H111.914V34.0119H96.0236V9.89693ZM149.764 21.4929L158.327 9.89693H149.531L141.604 20.9996V9.89693H133.911V34.0119H141.604V22.9092L155.286 40.5439C151.737 42.7168 147.65 43.8507 143.488 43.8169C140.598 43.8747 137.727 43.3486 135.046 42.27C132.365 41.1915 129.93 39.5828 127.886 37.5404C125.843 35.498 124.233 33.0641 123.154 30.3847C122.075 27.7053 121.548 24.8356 121.606 21.9479C121.62 16.1569 123.931 10.6078 128.033 6.51777C132.135 2.42773 137.693 0.130779 143.487 0.130779C149.281 0.130779 154.839 2.42773 158.941 6.51777C163.043 10.6078 165.354 16.1569 165.368 21.9479C165.409 26.8351 163.829 31.5983 160.873 35.4921L149.764 21.4929ZM53.0147 17.8704C53.0642 19.3452 52.6629 20.8 51.8644 22.0412C51.0659 23.2825 49.9081 24.2511 48.545 24.8183L54.6917 34.0119H47.3623L40.9051 23.9089V34.0119H34.6947V9.89693H42.4515C49.2339 9.89693 53.0147 12.5725 53.0147 17.8704ZM13.1512 15.1699C12.2707 15.1674 11.3987 15.3427 10.5877 15.6854C9.77667 16.0281 9.04331 16.5311 8.43166 17.1642C7.82001 17.7972 7.34269 18.5473 7.02836 19.3694C6.71403 20.1914 6.56918 21.0685 6.60251 21.9479C6.56807 22.8276 6.71214 23.7052 7.02605 24.5278C7.33996 25.3504 7.81721 26.101 8.42907 26.7344C9.04092 27.3678 9.77472 27.8709 10.5863 28.2134C11.3978 28.5558 12.2703 28.7306 13.1512 28.7272C14.3377 28.7224 15.5026 28.4099 16.5321 27.8204C17.5616 27.2308 18.4203 26.3844 19.0244 25.3637L23.8184 28.4936C22.6941 30.34 21.1059 31.8603 19.2117 32.9035C17.3175 33.9467 15.1832 34.4764 13.0207 34.4401C11.3645 34.4646 9.71993 34.1598 8.18267 33.5433C6.64541 32.9268 5.24613 32.011 4.06624 30.8492C2.88634 29.6873 1.94937 28.3026 1.30983 26.7755C0.67029 25.2485 0.340942 23.6096 0.340942 21.9541C0.340942 20.2987 0.67029 18.6598 1.30983 17.1327C1.94937 15.6057 2.88634 14.2209 4.06624 13.0591C5.24613 11.8972 6.64541 10.9814 8.18267 10.365C9.71993 9.74849 11.3645 9.44365 13.0207 9.46818C15.192 9.40778 17.3407 9.92267 19.2485 10.9606C21.1563 11.9985 22.7553 13.5224 23.8832 15.3777L18.9707 18.5983C18.3967 17.5583 17.5538 16.6915 16.53 16.0884C15.5062 15.4853 14.3396 15.168 13.1512 15.1699ZM67.0618 15.1699C66.1812 15.1673 65.3091 15.3425 64.498 15.6852C63.6869 16.0278 62.9534 16.5308 62.3417 17.1639C61.7299 17.797 61.2526 18.5471 60.9382 19.3692C60.6238 20.1913 60.479 21.0684 60.5123 21.9479C60.4779 22.8277 60.6219 23.7053 60.9359 24.528C61.2498 25.3507 61.7272 26.1013 62.3391 26.7347C62.951 27.3681 63.6849 27.8712 64.4966 28.2136C65.3082 28.556 66.1808 28.7307 67.0618 28.7272C68.2481 28.7224 69.4129 28.4099 70.4422 27.8204C71.4715 27.2308 72.3301 26.3843 72.9339 25.3637L77.729 28.4936C76.2917 30.7788 74.1487 32.5338 71.6243 33.493C69.0999 34.4522 66.3315 34.5634 63.7382 33.8096C61.1449 33.0559 58.8679 31.4784 57.2519 29.3158C55.6359 27.1532 54.7688 24.5233 54.7819 21.8242C54.795 19.1251 55.6876 16.5037 57.3245 14.3569C58.9615 12.2101 61.2537 10.6547 63.8542 9.92615C66.4547 9.19763 69.2218 9.33564 71.7368 10.3193C74.2518 11.3029 76.3777 13.0787 77.7927 15.3777L72.8817 18.5983C72.3076 17.5584 71.4646 16.6917 70.4409 16.0886C69.4171 15.4855 68.2501 15.1683 67.0618 15.1699Z" fill="white"/>
</svg>
