<svg width="16" height="20" viewBox="0 0 16 20" fill="none" xmlns="http://www.w3.org/2000/svg">
<g clip-path="url(#clip0_1729_95)">
<path d="M2.08315 20C2.05581 19.9805 2.03237 19.9648 2.00503 19.9453C1.84878 19.8398 1.77847 19.6953 1.82143 19.5117C1.8644 19.3359 2.01284 19.2226 2.21206 19.2226C2.58315 19.2187 2.95425 19.2226 3.32534 19.2226C4.56753 19.2226 5.80972 19.2226 7.05581 19.2226C7.12613 19.2226 7.19253 19.2226 7.2941 19.2226C7.24332 19.1445 7.21206 19.0898 7.17691 19.0391C5.44253 16.5859 3.71597 14.1289 1.97768 11.6758C-0.190286 8.62109 0.337058 4.29297 3.1769 1.84766C4.40347 0.792968 5.81363 0.179687 7.42691 0.0351562C7.46988 0.03125 7.51285 0.015625 7.55972 0.00390625C7.89957 0.00390625 8.2355 0.00390625 8.57535 0.00390625C8.96597 0.0664062 9.3605 0.113281 9.74332 0.199219C12.6027 0.832031 14.8839 3.24219 15.3683 6.14843C15.7082 8.19921 15.2746 10.0742 14.0714 11.7734C13.6808 12.3242 13.2902 12.8789 12.8996 13.4297C12.798 13.5742 12.6613 13.6523 12.4816 13.6094C12.3097 13.5703 12.1925 13.457 12.1847 13.2891C12.1808 13.1758 12.2238 13.043 12.2863 12.9492C12.6574 12.4062 13.0363 11.8711 13.423 11.3359C16.2629 7.40234 14.1339 1.90625 9.38785 0.910156C5.78238 0.15625 2.15347 2.61328 1.53237 6.22265C1.20815 8.10156 1.6105 9.80859 2.71206 11.3633C4.44644 13.8086 6.173 16.2617 7.90347 18.7148C7.94644 18.7773 7.99332 18.8398 8.05582 18.9297C8.1066 18.8633 8.14957 18.8086 8.18863 18.7539C8.83316 17.8398 9.47769 16.9258 10.1261 16.0117C10.1691 15.9531 10.2082 15.8906 10.255 15.8398C10.3918 15.6953 10.591 15.6797 10.7511 15.7852C10.9074 15.8906 10.966 16.0898 10.8839 16.2695C10.8527 16.332 10.8097 16.3906 10.7707 16.4492C10.1652 17.3047 9.56363 18.1601 8.95816 19.0156C8.9191 19.0742 8.88004 19.1328 8.82144 19.2187C8.9191 19.2187 8.9855 19.2187 9.05582 19.2187C10.6496 19.2187 12.2472 19.2187 13.841 19.2187C14.1261 19.2187 14.3019 19.3672 14.3058 19.6055C14.3097 19.8008 14.1769 19.9062 14.0324 20C10.0519 20 6.06753 20 2.08315 20Z" fill="white"/>
<path d="M4.54407 7.42188C4.54407 5.48438 6.12219 3.90625 8.0597 3.90625C9.9972 3.90625 11.5753 5.48438 11.5753 7.42188C11.5753 9.35938 9.9972 10.9375 8.0597 10.9375C6.12219 10.9375 4.54407 9.35938 4.54407 7.42188ZM8.0597 4.6875C6.55579 4.6875 5.32532 5.91016 5.32532 7.41406C5.32141 8.91797 6.54407 10.1484 8.04798 10.1523C9.5636 10.1562 10.7941 8.92969 10.7941 7.41406C10.7902 5.91406 9.56751 4.6875 8.0597 4.6875Z" fill="white"/>
<path d="M11.9659 14.6797C11.9698 14.8945 11.7902 15.0781 11.5753 15.0781C11.3683 15.0781 11.1925 14.9062 11.1886 14.6992C11.1847 14.4844 11.3644 14.3008 11.5792 14.3008C11.7823 14.2969 11.9581 14.4688 11.9659 14.6797Z" fill="white"/>
</g>
<defs>
<clipPath id="clip0_1729_95">
<rect width="14.8398" height="20" fill="white" transform="translate(0.641724)"/>
</clipPath>
</defs>
</svg>
