<svg width="25" height="25" viewBox="0 0 25 25" fill="none" xmlns="http://www.w3.org/2000/svg">
<path d="M10.9483 3.86666C12.3924 3.86534 13.8045 4.29236 15.0058 5.09369C16.2072 5.89502 17.1439 7.03467 17.6974 8.36845C18.251 9.70224 18.3965 11.1702 18.1156 12.5867C17.8346 14.0032 17.1399 15.3046 16.1192 16.3262C15.0986 17.3478 13.7979 18.0437 12.3816 18.3259C10.9654 18.6081 9.49726 18.4639 8.16297 17.9116C6.82868 17.3593 5.68818 16.4236 4.88575 15.223C4.08332 14.0224 3.65501 12.6108 3.65501 11.1667C3.66377 9.23443 4.43477 7.38374 5.80045 6.01681C7.16614 4.64988 9.01613 3.87718 10.9483 3.86666ZM10.9483 2.5C9.23424 2.5 7.55863 3.00829 6.13341 3.96059C4.70818 4.9129 3.59735 6.26645 2.94139 7.85007C2.28543 9.4337 2.1138 11.1763 2.44821 12.8574C2.78261 14.5386 3.60803 16.0829 4.82009 17.2949C6.03214 18.507 7.5764 19.3324 9.25756 19.6668C10.9387 20.0012 12.6813 19.8296 14.2649 19.1736C15.8486 18.5177 17.2021 17.4068 18.1544 15.9816C19.1067 14.5564 19.615 12.8808 19.615 11.1667C19.615 8.86812 18.7019 6.66372 17.0766 5.0384C15.4513 3.41309 13.2469 2.5 10.9483 2.5Z" fill="#EE2E24"/>
<path d="M23.3949 22.6933L18.4816 17.7467L17.5349 18.6867L22.4482 23.6333C22.51 23.6955 22.5833 23.7449 22.6641 23.7787C22.7449 23.8125 22.8316 23.8301 22.9192 23.8304C23.0068 23.8307 23.0936 23.8137 23.1747 23.7805C23.2557 23.7473 23.3294 23.6984 23.3916 23.6367C23.4537 23.5749 23.5031 23.5016 23.5369 23.4208C23.5707 23.34 23.5883 23.2533 23.5886 23.1657C23.5889 23.0781 23.572 22.9913 23.5387 22.9102C23.5055 22.8292 23.4566 22.7555 23.3949 22.6933Z" fill="#EE2E24"/>
</svg>
