<svg width="32" height="30" viewBox="0 0 32 30" fill="none" xmlns="http://www.w3.org/2000/svg">
<g clip-path="url(#clip0_1729_39)">
<path d="M4.46719 30C3.14911 29.8361 2.16055 28.6885 2.32531 27.3771C1.17199 27.2131 0.348192 26.0656 0.348192 24.7541C0.348192 24.5902 0.348192 22.9508 2.49007 22.2951C2.49007 20.9836 2.32531 18.5246 5.45574 18.0328H21.2727C21.2727 18.0328 22.0965 18.0328 22.9203 18.6885C23.7441 19.3443 24.0736 20.6557 24.0736 22.2951C25.3917 22.623 26.3802 23.9344 26.0507 25.4098C26.0507 26.8853 24.7326 27.3771 24.2384 27.541V27.7049C24.2384 28.5246 24.0736 29.8361 22.0965 30.1639L4.46719 30ZM21.2727 18.8525H5.45574C3.31387 19.1803 3.14911 20.6557 3.31387 22.2951C3.31387 22.459 3.31387 22.623 3.31387 22.623C3.31387 22.7869 3.14911 22.9508 2.98435 22.9508C1.00723 23.4426 1.17199 24.7541 1.17199 24.7541C1.17199 25.7377 1.83103 26.5574 2.81959 26.5574C2.98435 26.5574 2.98435 26.5574 3.14911 26.7213C3.14911 26.8852 3.31387 26.8853 3.14911 27.0492V27.2131C2.98435 28.0328 3.64339 28.8525 4.46719 29.0164H21.767C23.085 28.8525 23.085 28.1967 23.2498 27.3771C23.2498 27.2131 23.2498 27.0492 23.2498 26.8853C23.2498 26.7213 23.2498 26.7213 23.4146 26.5574C23.5793 26.5574 23.5793 26.3934 23.9088 26.3934C24.5679 26.2295 25.2269 25.9016 25.2269 25.082C25.3917 23.9344 24.5679 22.9508 23.5793 22.7869C23.4146 22.7869 23.2498 22.623 23.2498 22.2951C23.2498 20.8197 23.085 19.6721 22.426 19.0164C21.9317 18.8525 21.4374 18.8525 21.2727 18.8525Z" fill="#EE2E24"/>
<path d="M2.98435 23.1148C2.81959 23.1148 2.65483 22.9508 2.65483 22.7869C2.65483 22.6229 2.81959 22.2951 2.98435 22.2951H23.7441C23.9088 22.2951 24.0736 22.459 24.0736 22.623C24.0736 22.7869 23.9088 23.1148 23.7441 23.1148H2.98435Z" fill="#EE2E24"/>
<path d="M23.7441 27.541H2.81959C2.65483 27.541 2.49007 27.3771 2.49007 27.2131C2.49007 27.0492 2.65483 26.8852 2.81959 26.8852H23.7441C23.9088 26.8852 24.0736 27.0492 24.0736 27.2131C24.2384 27.3771 23.9088 27.541 23.7441 27.541Z" fill="#EE2E24"/>
<path d="M5.95003 19.6721H5.12623V20.4918H5.95003V19.6721Z" fill="#F99B2A"/>
<path d="M8.42142 20.4918H7.59762V21.3115H8.42142V20.4918Z" fill="#F99B2A"/>
<path d="M11.0576 19.6721H10.2338V20.4918H11.0576V19.6721Z" fill="#F99B2A"/>
<path d="M13.6937 20.4918H12.8699V21.3115H13.6937V20.4918Z" fill="#F99B2A"/>
<path d="M16.1651 19.6721H15.3413V20.4918H16.1651V19.6721Z" fill="#F99B2A"/>
<path d="M18.8013 20.4918H17.9775V21.3115H18.8013V20.4918Z" fill="#F99B2A"/>
<path d="M21.4374 19.6721H20.6136V20.4918H21.4374V19.6721Z" fill="#F99B2A"/>
<path d="M5.95002 25.5738C5.29098 25.5738 4.63195 25.4098 3.97291 25.082C3.31387 24.7541 2.81959 24.5902 2.16055 24.5902C1.99579 24.5902 1.83103 24.4262 1.83103 24.0984C1.83103 23.9344 1.99579 23.6066 2.32531 23.7705C3.14911 23.7705 3.80815 23.9344 4.46719 24.2623C5.45574 24.7541 6.60906 24.7541 7.43286 24.2623C8.75094 23.6066 10.3985 23.6066 11.7166 24.2623C12.7052 24.7541 13.8585 24.7541 14.847 24.2623C16.1651 23.6066 17.648 23.6066 18.966 24.2623C19.7898 24.5902 20.7784 24.5902 21.767 24.2623C22.5908 23.9344 23.4146 23.7705 24.2384 23.7705C24.4031 23.7705 24.5679 23.9344 24.5679 24.2623C24.5679 24.4262 24.4031 24.5902 24.0736 24.5902C23.4146 24.5902 22.5908 24.7541 21.9317 24.918C20.7784 25.4098 19.6251 25.4098 18.4718 24.918C17.3184 24.4262 16.1651 24.4262 15.1766 24.918C14.0233 25.5738 12.5404 25.5738 11.2223 24.918C10.069 24.4262 8.75094 24.4262 7.76238 24.918C7.2681 25.4098 6.60906 25.5738 5.95002 25.5738Z" fill="#F99B2A"/>
<path d="M7.76238 17.377C7.43286 17.377 7.2681 17.0492 7.43286 16.8852C7.43286 16.3934 7.76238 15.9016 8.0919 15.5738C8.25666 15.4098 8.25666 14.918 7.92714 14.7541C7.2681 14.2623 7.10334 13.4426 7.59762 12.7869C7.59762 12.7869 7.59762 12.6229 7.76238 12.6229C8.0919 12.2951 8.25666 12.1311 8.25666 12.1311C8.25666 12.1311 8.25666 12.1311 8.25666 11.9672C8.25666 11.8033 8.42142 11.6393 8.58618 11.6393C8.75094 11.6393 8.9157 11.8033 8.9157 11.9672C8.9157 12.459 8.75094 12.6229 8.0919 13.1148C8.0919 13.4426 8.0919 13.9344 8.42142 14.0984C8.42142 14.0984 8.42142 14.0984 8.58618 14.0984C8.75094 14.4262 8.9157 14.7541 8.9157 15.082C8.9157 15.4098 8.75094 15.9016 8.58618 16.0656C8.42142 16.3934 8.25666 16.5574 8.0919 16.8852C8.0919 17.2131 7.92714 17.377 7.76238 17.377Z" fill="#9A9A9C"/>
<path d="M10.3985 16.5574C10.069 16.5574 9.90426 16.2295 10.069 16.0656C10.069 15.5738 10.2338 15.2459 10.5633 14.7541C10.7281 14.4262 10.7281 14.0984 10.3985 13.9344C10.2338 13.7705 10.069 13.4426 9.90426 13.1148C9.90426 12.7869 9.90426 12.2951 10.069 11.9672C10.069 11.9672 10.069 11.8033 10.2338 11.8033L10.3985 11.6393C10.7281 11.3115 10.7281 11.3115 10.7281 11.1475C10.7281 10.9836 10.8928 10.8197 11.2223 10.8197C11.3871 10.8197 11.5519 10.9836 11.5519 11.3115C11.5519 11.8033 11.3871 11.8033 10.8928 12.2951V12.459C10.7281 12.623 10.7281 12.7869 10.7281 12.9508C10.7281 13.1148 10.8928 13.1148 11.0576 13.2787C11.7166 13.7705 11.7166 14.7541 11.2223 15.4098C11.0576 15.5738 10.8928 15.9016 10.7281 16.2295C10.7281 16.3934 10.5633 16.5574 10.3985 16.5574Z" fill="#9A9A9C"/>
<path d="M12.8699 17.3771C12.5404 17.3771 12.3757 17.0492 12.5404 16.8852C12.7052 16.3934 12.8699 15.9016 13.1995 15.5738C13.3642 15.4098 13.3642 15.2459 13.3642 15.082C13.3642 14.918 13.1995 14.918 13.1995 14.7541C12.8699 14.5902 12.5404 14.2623 12.5404 13.7705C12.5404 13.4426 12.5404 12.9508 12.7052 12.623C12.7052 12.623 12.7052 12.459 12.8699 12.459L13.0347 12.2951C13.3642 11.9672 13.3642 11.9672 13.3642 11.8033C13.3642 11.6393 13.6937 11.4754 13.8585 11.4754C14.0232 11.4754 14.188 11.6393 14.188 11.9672C14.188 12.459 14.0232 12.623 13.529 13.1148C13.3642 13.2787 13.3642 13.4426 13.3642 13.6066C13.3642 13.7705 13.529 13.9344 13.529 14.0984C13.529 14.0984 13.529 14.0984 13.6937 14.0984C14.0233 14.4262 14.188 14.7541 14.188 15.082C14.188 15.4098 14.0232 15.9016 13.8585 16.0656C13.529 16.3934 13.3642 16.7213 13.3642 17.0492C13.3642 17.2131 13.1995 17.3771 12.8699 17.3771Z" fill="#9A9A9C"/>
<path d="M31.1583 10H16.1651C15.8356 10 15.6708 9.83607 15.6708 9.67213V7.04918C15.6708 6.88525 15.8356 6.55738 16.1651 6.55738H22.2612V0.327869C22.2612 0.163934 22.426 0 22.5908 0H24.7326C24.8974 0 25.0622 0.163934 25.0622 0.327869V6.55738H31.1583C31.323 6.55738 31.4878 6.72131 31.4878 6.88525V9.34426C31.6525 9.83607 31.4878 10 31.1583 10ZM16.4946 9.18033H30.8287V7.54098H24.7326C24.5679 7.54098 24.4031 7.37705 24.4031 7.21312V0.819672H23.085V7.04918C23.085 7.21312 22.9203 7.37705 22.7555 7.37705H16.4946V9.18033Z" fill="#EE2E24"/>
<path d="M28.1926 29.8361H24.4031C24.2384 29.8361 24.0736 29.6721 24.0736 29.5082C24.0736 29.3443 24.2384 29.1803 24.4031 29.1803H27.8631L29.3459 9.67214C29.3459 9.5082 29.5107 9.34427 29.8402 9.34427C30.0049 9.34427 30.1697 9.5082 30.1697 9.83607L28.6869 29.5082C28.6869 29.6721 28.5221 29.8361 28.1926 29.8361Z" fill="#EE2E24"/>
<path d="M18.4718 17.7049C18.307 17.7049 18.1422 17.541 18.1422 17.377L17.4832 9.67213C17.4832 9.50819 17.648 9.18032 17.8127 9.18032C17.9775 9.18032 18.307 9.34426 18.307 9.50819L18.966 17.2131C18.8013 17.541 18.6365 17.7049 18.4718 17.7049Z" fill="#EE2E24"/>
<path d="M24.7326 7.54099H22.7555C22.5908 7.54099 22.426 7.37705 22.426 7.21312C22.426 7.04918 22.5908 6.88525 22.7555 6.88525H24.7326C24.8974 6.88525 25.0622 7.04918 25.0622 7.21312C25.0622 7.37705 25.0622 7.54099 24.7326 7.54099Z" fill="#EE2E24"/>
</g>
<defs>
<clipPath id="clip0_1729_39">
<rect width="31.3043" height="30" fill="white" transform="translate(0.348192)"/>
</clipPath>
</defs>
</svg>
