<svg width="25" height="23" viewBox="0 0 25 23" fill="none" xmlns="http://www.w3.org/2000/svg">
<g clip-path="url(#clip0_1729_102)">
<path d="M12.0613 11.5297C5.73668 11.5297 0.591003 16.461 0.591003 22.5221C0.591003 22.7859 0.814442 23 1.08973 23C1.36502 23 1.58846 22.7859 1.58846 22.5221C1.58846 16.9876 6.28632 12.4855 12.0614 12.4855C17.8365 12.4855 22.5343 16.9876 22.5343 22.5221C22.5343 22.7859 22.7578 23 23.0331 23C23.3083 23 23.5318 22.7859 23.5318 22.5221C23.5317 16.46 18.386 11.5297 12.0613 11.5297Z" fill="#EE2E24"/>
<path d="M12.0618 0C9.0376 0 6.57599 2.3581 6.57599 5.25724C6.57599 8.15637 9.03764 10.5145 12.0618 10.5145C15.086 10.5145 17.5476 8.15637 17.5476 5.25724C17.5476 2.3581 15.086 0 12.0618 0ZM12.0618 9.55862C9.58719 9.55862 7.5734 7.62873 7.5734 5.25724C7.5734 2.88574 9.58719 0.955849 12.0618 0.955849C14.5364 0.955849 16.5502 2.88574 16.5502 5.25724C16.5502 7.62873 14.5364 9.55862 12.0618 9.55862Z" fill="#EE2E24"/>
</g>
<defs>
<clipPath id="clip0_1729_102">
<rect width="24" height="23" fill="white" transform="translate(0.0616455)"/>
</clipPath>
</defs>
</svg>
