<svg width="23" height="30" viewBox="0 0 23 30" fill="none" xmlns="http://www.w3.org/2000/svg">
<g clip-path="url(#clip0_1729_85)">
<path d="M12.2152 0C12.6898 0.0878906 13.1762 0.158203 13.6449 0.275391C14.9867 0.609375 16.1293 1.2832 17.0609 2.30859C17.1254 2.37891 17.1957 2.45508 17.2777 2.50781C18.3851 3.16992 18.9184 4.21289 19.0062 5.4375C19.1 6.76758 19.0531 8.10938 19.0824 9.44531C19.0883 9.66211 19.1234 9.89062 19.182 10.1016C19.4633 11.0684 18.7191 12.1113 17.6527 12.1875C17.4066 12.2051 17.3422 12.2812 17.2953 12.5215C16.9906 14.2559 16.1059 15.6094 14.6058 16.5527C14.2601 16.7695 14.2484 17.1211 14.5355 17.4082C15.1391 18 15.8363 18.4043 16.6566 18.6387C17.3773 18.8496 18.0687 19.1426 18.7836 19.3711C19.9555 19.752 20.6703 20.5312 20.8988 21.75C21.0277 22.4414 21.1742 23.127 21.309 23.8184C21.3734 24.1641 21.2504 24.3867 20.9867 24.4336C20.723 24.4863 20.5238 24.3223 20.4535 23.9824C20.3012 23.25 20.1605 22.5117 20.0023 21.7734C19.9086 21.3281 19.7094 20.9297 19.2699 20.5898C19.0238 21.2988 18.7601 21.9668 18.5609 22.6582C18.2973 23.5723 18.1742 24.5039 18.1976 25.459C18.2269 26.5488 18.2035 27.6445 18.2035 28.7402C18.2035 28.8574 18.2035 28.9688 18.2035 29.1035C19.0355 29.1035 19.8441 29.1387 20.6469 29.0918C21.1508 29.0625 21.3617 28.6875 21.268 28.1309C21.1625 27.5332 21.0336 26.9473 20.9164 26.3496C20.9047 26.2852 20.8871 26.2148 20.8812 26.1504C20.8402 25.8223 20.9574 25.6113 21.2152 25.5586C21.473 25.5059 21.684 25.6758 21.7484 26.0098C21.848 26.5078 21.9476 27.0059 22.0297 27.5039C22.0824 27.832 22.1586 28.1602 22.141 28.4883C22.0941 29.2852 21.6957 29.7305 20.9281 29.9355C20.8754 29.9531 20.8226 29.9766 20.7699 30C16.7445 30 12.725 30 8.6996 30C8.52381 29.8418 8.34803 29.6836 8.45936 29.4082C8.56483 29.1387 8.79335 29.1152 9.03944 29.1211C9.09803 29.1211 9.15663 29.1211 9.21522 29.1211C11.7933 29.1211 14.3715 29.1211 16.9496 29.1211C17.0668 29.1211 17.1781 29.1211 17.3129 29.1211C17.3187 28.998 17.3246 28.9043 17.3246 28.8105C17.3246 27.7148 17.3246 26.625 17.3246 25.5293C17.3246 25.1309 17.2953 24.7266 17.3422 24.3281C17.4945 22.9805 17.8461 21.6855 18.4144 20.4551C18.4496 20.3789 18.473 20.2969 18.5082 20.2031C17.5297 19.8633 16.5805 19.5293 15.6254 19.1953C15.4789 19.6523 15.3558 20.0684 15.2094 20.4785C14.6527 22.0137 13.8734 23.4023 12.6488 24.5156C12.016 25.0898 11.1312 25.1367 10.4867 24.5977C10.2582 24.4043 10.0414 24.1875 9.83632 23.9648C8.85194 22.8867 8.20155 21.6152 7.72108 20.2559C7.60389 19.916 7.49842 19.5703 7.38124 19.207C6.42616 19.541 5.4828 19.875 4.516 20.209C4.60389 20.4082 4.68006 20.5723 4.75037 20.7422C5.33631 22.1602 5.72889 23.6191 5.71131 25.166C5.69959 26.3789 5.71131 27.5859 5.71131 28.7988C5.71131 28.8984 5.71131 29.0039 5.71131 29.1211C6.05702 29.1211 6.3617 29.127 6.66053 29.1211C6.90663 29.1152 7.13514 29.1387 7.24647 29.4082C7.3578 29.6777 7.18202 29.8418 7.00624 30.0059C5.44178 30.0059 3.88319 30.0059 2.31873 30.0059C1.8617 29.8828 1.42225 29.7422 1.141 29.3145C0.848028 28.8574 0.818731 28.3594 0.918341 27.8496C1.3285 25.7285 1.75037 23.6133 2.18983 21.5039C2.40076 20.4844 3.05115 19.8105 4.00623 19.4531C5.05506 19.0605 6.13905 18.7559 7.1703 18.3164C7.7035 18.0879 8.15467 17.666 8.61756 17.3027C8.79335 17.1621 8.67616 16.7109 8.45936 16.5762C7.33436 15.8789 6.51405 14.9238 6.05116 13.6875C5.89881 13.2891 5.80506 12.8672 5.72303 12.4512C5.68202 12.2578 5.61756 12.2051 5.43006 12.1875C4.59217 12.1289 3.96522 11.584 3.81287 10.7578C3.77772 10.5527 3.81873 10.3359 3.84217 10.125C3.87147 9.87891 3.93592 9.63281 3.94178 9.38086C3.97108 8.47266 3.94178 7.56445 4.01209 6.66211C4.08826 5.68945 4.41639 4.78125 4.88514 3.92578C5.01405 3.68555 5.266 3.60938 5.4828 3.7207C5.70545 3.83203 5.78162 4.07812 5.64686 4.35352C5.30116 5.04492 4.99647 5.75977 4.9203 6.5332C4.84412 7.35352 4.83241 8.17969 4.79139 9.01172C5.08436 8.9707 5.31873 8.95312 5.54139 8.89453C5.61756 8.87695 5.69373 8.76562 5.72303 8.68359C6.016 7.74609 6.70741 7.1543 7.66834 7.07812C7.92616 7.05469 8.19569 7.08398 8.45936 7.11328C10.4808 7.33008 12.3148 6.89062 13.9144 5.58984C14.4652 5.14453 14.9926 5.23242 15.3793 5.81836C15.7016 6.31055 16.1117 6.63281 16.7094 6.73242C17.2074 6.81445 17.3773 7.05469 17.3832 7.57031C17.3832 7.99805 17.3832 8.42578 17.3832 8.86523C17.6527 8.91797 17.9105 8.96484 18.1801 9.01172C18.1859 8.94141 18.1976 8.86523 18.1976 8.79492C18.1801 7.68164 18.2152 6.56836 18.1273 5.46094C18.0512 4.51172 17.6351 3.70312 16.7445 3.2168C16.6508 3.16992 16.5805 3.08203 16.5101 3C15.0512 1.37109 13.1937 0.767578 11.0609 0.908203C9.45546 1.01367 8.06678 1.64648 6.88905 2.74805C6.63709 2.98242 6.37342 2.98828 6.19764 2.78906C6.01014 2.57812 6.05116 2.34375 6.30311 2.09766C7.55702 0.902344 9.05116 0.240234 10.768 0.0585938C10.8441 0.0527344 10.9203 0.0234375 10.9906 0.00585938C11.3949 0 11.8051 0 12.2152 0ZM14.5648 6.19336C14.4535 6.27539 14.3773 6.32812 14.3012 6.39258C13.2582 7.21289 12.0863 7.7168 10.7797 7.92773C9.84217 8.08008 8.91639 8.03906 7.97889 7.95703C7.141 7.88086 6.54334 8.43164 6.53163 9.26953C6.51991 10.0898 6.51991 10.9102 6.53163 11.7305C6.5492 12.7559 6.87733 13.6816 7.47499 14.5137C8.6117 16.0957 10.7328 16.9688 12.8715 16.377C14.7172 15.8672 16.2992 14.127 16.4223 12.2344C16.5101 10.8926 16.4691 9.54492 16.4867 8.19727C16.4867 7.99219 16.4867 7.79297 16.4867 7.57617C15.6195 7.42969 15.0219 6.9375 14.5648 6.19336ZM3.76014 20.5957C3.34412 20.8711 3.1742 21.2168 3.08045 21.6035C2.93983 22.1895 2.80506 22.7812 2.68787 23.373C2.37147 24.9492 2.06092 26.5254 1.75623 28.1074C1.63318 28.7637 1.92029 29.0977 2.5824 29.1152C2.97498 29.127 3.3617 29.1211 3.75428 29.1211C4.09998 29.1211 4.44569 29.1211 4.81483 29.1211C4.81483 28.9746 4.81483 28.8691 4.81483 28.7637C4.81483 27.6328 4.79139 26.502 4.82069 25.3652C4.84412 24.4395 4.71522 23.5371 4.45741 22.6523C4.26405 21.9668 4.00623 21.2988 3.76014 20.5957ZM13.4633 17.168C12.1508 17.5547 10.8676 17.543 9.57264 17.1152C9.60194 17.373 10.7211 18.5391 11.5062 19.166C12.1683 18.5156 12.8422 17.8828 13.4633 17.168ZM14.6879 18.6855C14.4242 18.4629 14.1781 18.2578 13.9027 18.0234C13.3226 18.6504 12.7543 19.2598 12.1742 19.8926C12.3851 20.127 12.6547 20.4199 12.9183 20.7188C13.0766 20.9004 13.1879 20.8535 13.3051 20.6777C13.7562 20.0273 14.2133 19.3711 14.6879 18.6855ZM9.11561 18.0527C8.81092 18.2988 8.56483 18.498 8.2953 18.7148C8.76991 19.4004 9.2328 20.0742 9.71327 20.7363C9.75428 20.7891 9.94764 20.8184 9.98866 20.7773C10.2933 20.4727 10.5805 20.1445 10.8031 19.8984C10.2289 19.2656 9.68397 18.668 9.11561 18.0527ZM11.5062 22.459C11.2484 22.3828 11.1488 22.5176 11.0902 22.752C11.0258 23.0273 10.9262 23.291 10.8558 23.5605C10.8383 23.625 10.8324 23.7246 10.8734 23.7656C11.0844 24 11.3422 24.1465 11.6762 24.0762C12.0746 23.9941 12.2269 23.7422 12.1098 23.3613C12.0512 23.1562 11.9691 22.957 11.9281 22.7461C11.8754 22.5 11.7582 22.3828 11.5062 22.459ZM5.63514 9.7793C5.23084 9.76758 4.93201 9.9082 4.75037 10.2305C4.60975 10.4707 4.63319 10.7227 4.80311 10.9453C5.00819 11.2148 5.27772 11.3555 5.63514 11.3027C5.63514 10.793 5.63514 10.3008 5.63514 9.7793ZM17.3832 11.3203C17.7875 11.3262 18.0805 11.1973 18.268 10.8691C18.4086 10.6289 18.3851 10.377 18.2211 10.1543C18.016 9.87891 17.7465 9.74414 17.3832 9.79102C17.3832 10.3008 17.3832 10.793 17.3832 11.3203ZM10.8324 21.1758C11.0609 21.5859 11.0609 21.5684 11.7348 21.5684C12.0101 21.5684 12.0453 21.3633 12.1683 21.1992C11.9398 20.9414 11.7172 20.7012 11.4887 20.4492C11.2601 20.707 11.0492 20.9414 10.8324 21.1758ZM12.9125 22.9746C13.2289 22.4707 13.4984 22.0371 13.7973 21.5625C13.5277 21.6328 13.3344 21.709 13.1351 21.7266C12.766 21.7617 12.6078 21.9727 12.7074 22.3184C12.766 22.5059 12.8246 22.6875 12.9125 22.9746ZM10.1117 22.9453C10.1996 22.6582 10.3168 22.4414 10.3168 22.2188C10.3168 22.0605 10.1996 21.8086 10.0707 21.7559C9.83046 21.6504 9.53749 21.6562 9.2621 21.6152C9.38514 21.832 9.50819 22.0547 9.64295 22.2656C9.77772 22.4766 9.92421 22.6816 10.1117 22.9453Z" fill="#EE2E24"/>
<path d="M15.9184 25.1836C16.5687 25.3477 16.7562 25.5879 16.7562 26.2383C16.7562 26.7246 16.7621 27.2168 16.7562 27.7031C16.7445 28.3125 16.4398 28.6172 15.8305 28.6231C15.1098 28.6289 14.3832 28.6348 13.6625 28.6289C13.0238 28.6231 12.7191 28.3125 12.7133 27.668C12.7074 27.1992 12.7133 26.7305 12.7133 26.2617C12.7133 25.582 12.889 25.3594 13.5394 25.1895C13.598 24.1758 14.0258 23.6543 14.7699 23.6836C15.5082 23.707 15.9184 24.2461 15.9184 25.1836ZM13.6039 27.7207C14.3773 27.7207 15.1098 27.7207 15.848 27.7207C15.848 27.1699 15.848 26.6426 15.848 26.0977C15.0922 26.0977 14.3539 26.0977 13.6039 26.0977C13.6039 26.6426 13.6039 27.1699 13.6039 27.7207ZM15.0746 25.0137C15.0805 24.9668 15.0863 24.9258 15.098 24.8789C14.9926 24.7734 14.9047 24.6211 14.7816 24.5801C14.6058 24.5215 14.4594 24.6328 14.4301 24.832C14.4008 25.0254 14.4887 25.1836 14.682 25.1836C14.8109 25.1836 14.9398 25.0723 15.0746 25.0137Z" fill="#F99B2A"/>
</g>
<defs>
<clipPath id="clip0_1729_85">
<rect width="21.2812" height="30" fill="white" transform="translate(0.859741)"/>
</clipPath>
</defs>
</svg>
