<svg width="40" height="40" viewBox="0 0 40 40" fill="none" xmlns="http://www.w3.org/2000/svg">
<g clip-path="url(#clip0_0_282)">
<path d="M15.55 40C14.75 39.7 14.15 39.2 14.05 38.4C14.05 38.2 14.05 38.1 14.05 37.9C14.05 34.9 14.05 31.9 14.05 28.9C14.05 28.2 14.25 27.7 14.75 27.2C14.85 27.1 14.85 27 14.85 26.8C14.85 24.9 14.85 23.1 14.85 21.2C14.85 21.1 14.75 20.9 14.65 20.8C14.25 20.4 14.05 19.9 14.05 19.2C14.05 17.3 14.05 15.4 14.05 13.5C14.05 12.2 14.65 11.2 15.85 10.6C16.85 10.1 17.15 9.29998 17.15 8.09998C17.15 7.99998 17.05 7.89998 16.95 7.89998C16.45 7.59998 16.25 7.29998 16.25 6.69998C16.25 6.39998 16.25 5.99998 16.25 5.69998C16.25 5.09998 16.75 4.59998 17.35 4.59998C19.35 4.59998 21.35 4.59998 23.35 4.59998C23.95 4.59998 24.45 5.09998 24.45 5.69998C24.45 5.99998 24.45 6.29998 24.45 6.59998C24.45 7.19998 24.25 7.59998 23.75 7.89998C23.65 7.89998 23.55 8.09998 23.55 8.19998C23.55 9.19998 23.85 10.1 24.85 10.7C25.95 11.3 26.55 12.3 26.55 13.6C26.55 15.5 26.55 17.4 26.55 19.3C26.55 19.9 26.35 20.4 25.95 20.8C25.85 20.9 25.75 21.1 25.75 21.2C25.75 23 25.75 24.9 25.75 26.7C25.75 26.9 25.85 27 25.95 27.2C26.35 27.6 26.55 28.1 26.55 28.7C26.55 31.8 26.55 34.9 26.55 38C26.55 39.1 25.95 39.7 24.95 40C21.85 40 18.75 40 15.55 40ZM25.45 33.8C25.25 33.8 25.15 33.8 24.95 33.8C23.35 33.8 21.75 33.8 20.15 33.8C19.95 33.8 19.65 33.8 19.45 33.8C19.15 33.8 18.95 33.6 18.95 33.3C18.95 33 19.15 32.8 19.45 32.7C19.55 32.7 19.75 32.7 19.85 32.7C21.55 32.7 23.35 32.7 25.05 32.7C25.15 32.7 25.35 32.7 25.45 32.7C25.45 32.3 25.45 31.9 25.45 31.6C22.05 31.6 18.65 31.6 15.25 31.6C15.25 32 15.25 32.3 15.25 32.7C15.75 32.7 16.25 32.7 16.75 32.7C17.25 32.7 17.55 33.2 17.25 33.6C17.15 33.7 16.85 33.8 16.65 33.9C16.15 33.9 15.75 33.9 15.25 33.9C15.25 35.4 15.25 36.8 15.25 38.2C15.25 38.6 15.55 38.9 16.05 38.9C18.95 38.9 21.85 38.9 24.65 38.9C25.15 38.9 25.45 38.6 25.45 38.2C25.45 36.7 25.45 35.2 25.45 33.8ZM25.35 14.3C25.55 13.1 25.15 12.2 24.15 11.7C23.25 11.2 22.75 10.5 22.55 9.49998C22.45 9.09998 22.45 8.59998 22.35 8.19998C20.95 8.19998 19.65 8.19998 18.25 8.19998C18.25 8.39998 18.25 8.49998 18.25 8.69998C18.15 10.1 17.65 11.2 16.35 11.8C15.45 12.3 15.05 13.3 15.25 14.4C18.65 14.3 21.95 14.3 25.35 14.3ZM24.55 21.3C21.65 21.3 18.85 21.3 15.95 21.3C15.95 23.2 15.95 25 15.95 26.9C18.85 26.9 21.65 26.9 24.55 26.9C24.55 25 24.55 23.1 24.55 21.3ZM25.45 17.8C22.05 17.8 18.65 17.8 15.25 17.8C15.25 18.3 15.25 18.8 15.25 19.4C15.25 19.9 15.55 20.1 15.95 20.1C18.85 20.1 21.85 20.1 24.75 20.1C25.25 20.1 25.45 19.9 25.45 19.4C25.45 18.9 25.45 18.4 25.45 17.8ZM25.35 30.2C25.35 29.6 25.35 29.1 25.35 28.6C25.35 28.2 25.05 28 24.65 28C21.65 28 18.75 28 15.75 28C15.35 28 15.15 28.2 15.15 28.5C15.15 29.1 15.15 29.6 15.15 30.2C18.65 30.2 21.95 30.2 25.35 30.2ZM25.35 15.5C21.95 15.5 18.55 15.5 15.15 15.5C15.15 15.9 15.15 16.3 15.15 16.6C18.55 16.6 21.95 16.6 25.35 16.6C25.35 16.2 25.35 15.9 25.35 15.5ZM17.35 6.89998C19.35 6.89998 21.25 6.89998 23.25 6.89998C23.25 6.49998 23.25 6.19998 23.25 5.89998C21.25 5.89998 19.35 5.89998 17.35 5.89998C17.35 6.19998 17.35 6.49998 17.35 6.89998Z" fill="#EE2E24"/>
<path d="M9.55 0C10.15 0.3 10.35 0.8 10.25 1.4C10.25 2 10.25 2.6 10.25 3.2C10.25 3.6 10.15 3.8 9.85 4.1C9.75 4.1 9.65 4.3 9.65 4.4C9.65 5.6 9.65 6.9 9.65 8.1C9.65 8.8 9.85 9.4 10.25 10C10.75 10.7 11.25 11.4 11.85 12.1C12.65 13.2 12.95 14.4 12.95 15.7C12.95 23.1 12.95 30.5 12.95 37.8C12.95 39 12.65 39.4 11.55 39.9C8.35 39.9 5.15 39.9 1.95 39.9C1.15 39.7 0.650002 39.1 0.650002 38.1C0.650002 30.5 0.650002 22.9 0.650002 15.3C0.650002 14.7 0.750002 14 1.05 13.4C1.65 12.3 2.35 11.3 3.15 10.3C3.35 10 3.65 10 3.95 10.2C4.25 10.4 4.25 10.7 4.15 11C4.05 11.1 3.95 11.3 3.85 11.4C3.45 12 3.05 12.5 2.65 13.1C1.85 14.2 1.85 15.4 1.95 16.7C5.25 16.7 8.55 16.7 11.85 16.7C12.05 15.2 11.85 13.9 10.95 12.7C10.45 12 9.95 11.4 9.45 10.7C8.85 10 8.55 9.3 8.55 8.6C8.55 7.5 8.55 6.4 8.55 5.3C8.55 5 8.55 4.6 8.55 4.2C7.45 4.2 6.35 4.2 5.15 4.2C5.15 4.9 5.15 5.5 5.15 6.2C5.15 6.9 5.15 7.5 5.15 8.2C5.15 8.5 4.95 8.7 4.65 8.8C4.35 8.8 4.05 8.6 4.05 8.3C4.05 8.2 4.05 8 4.05 7.9C4.05 6.8 4.05 5.6 4.05 4.5C4.05 4.3 3.95 4.2 3.85 4C3.65 3.7 3.45 3.4 3.35 3.2C3.25 2.6 3.35 2 3.35 1.4C3.35 0.8 3.55 0.3 4.05 0C5.95 0 7.75 0 9.55 0ZM1.85 31.4C1.85 31.5 1.85 31.7 1.85 31.8C1.85 33.9 1.85 35.9 1.85 38C1.85 38.6 2.05 38.8 2.65 38.8C5.45 38.8 8.25 38.8 11.05 38.8C11.75 38.8 11.85 38.7 11.85 38C11.85 35.9 11.85 33.9 11.85 31.8C11.85 31.7 11.85 31.5 11.85 31.4C8.45 31.4 5.15 31.4 1.85 31.4ZM11.75 19.9C8.45 19.9 5.15 19.9 1.85 19.9C1.85 22.6 1.85 25.4 1.85 28.1C5.15 28.1 8.45 28.1 11.75 28.1C11.75 25.4 11.75 22.7 11.75 19.9ZM1.85 18.7C5.15 18.7 8.45 18.7 11.75 18.7C11.75 18.4 11.75 18.1 11.75 17.8C8.45 17.8 5.15 17.8 1.85 17.8C1.85 18.1 1.85 18.4 1.85 18.7ZM11.75 29.3C8.45 29.3 5.15 29.3 1.85 29.3C1.85 29.6 1.85 29.9 1.85 30.2C5.15 30.2 8.45 30.2 11.75 30.2C11.75 29.9 11.75 29.7 11.75 29.3ZM4.55 1.2C4.55 1.8 4.55 2.4 4.55 3C6.05 3 7.55 3 9.05 3C9.05 2.4 9.05 1.8 9.05 1.2C7.55 1.2 6.05 1.2 4.55 1.2Z" fill="#EE2E24"/>
<path d="M28.75 40C27.85 39.7 27.55 39.1 27.55 38.1C27.55 31.5 27.55 24.8 27.55 18.2C27.55 17.6 27.75 17.1 28.25 16.7C28.35 16.6 28.35 16.5 28.35 16.4C28.35 16 28.35 15.7 28.35 15.3C28.35 14.7 28.75 14.3 29.35 14.2C29.65 14.2 30.05 14.2 30.35 14.2C30.65 14.2 30.95 14.5 30.95 14.8C30.95 15.1 30.75 15.4 30.35 15.4C30.05 15.4 29.85 15.4 29.55 15.4C29.55 15.8 29.55 16.1 29.55 16.5C32.25 16.5 34.95 16.5 37.75 16.5C37.75 16.1 37.75 15.8 37.75 15.4C37.55 15.4 37.45 15.4 37.35 15.4C36.05 15.4 34.65 15.4 33.35 15.4C33.25 15.4 33.15 15.4 32.95 15.4C32.55 15.4 32.35 15.1 32.35 14.8C32.35 14.5 32.55 14.2 32.95 14.2C33.45 14.2 33.95 14.2 34.35 14.2C35.45 14.2 36.55 14.2 37.55 14.2C38.35 14.2 38.85 14.6 38.85 15.5C38.85 15.7 38.85 15.8 38.85 16C38.85 16.4 38.85 16.6 39.25 16.9C39.65 17.2 39.65 17.6 39.65 18.1C39.65 21.5 39.65 24.9 39.65 28.4C39.65 31.6 39.65 34.8 39.65 38C39.65 38.9 39.35 39.6 38.45 40C35.35 40 32.05 40 28.75 40ZM38.65 28.7C38.05 28.7 37.45 28.7 36.85 28.7C36.75 28.7 36.65 28.8 36.65 28.9C35.15 30.7 32.35 30.7 30.95 28.9C30.85 28.8 30.75 28.7 30.75 28.7C30.15 28.7 29.55 28.7 28.95 28.7C28.95 31.4 28.95 34 28.95 36.6C32.25 36.6 35.55 36.6 38.85 36.6C38.65 33.9 38.65 31.3 38.65 28.7ZM28.75 24.3C29.35 24.3 29.95 24.3 30.55 24.3C30.65 24.3 30.75 24.2 30.85 24.1C32.45 22.4 34.95 22.4 36.55 24.1C36.65 24.2 36.75 24.3 36.85 24.3C37.45 24.3 38.05 24.3 38.65 24.3C38.65 24.2 38.65 24.2 38.65 24.1C38.65 22.1 38.65 20.1 38.65 18.1C38.65 17.8 38.45 17.7 38.15 17.7C35.15 17.7 32.15 17.7 29.15 17.7C28.75 17.7 28.65 17.8 28.65 18.2C28.65 20.1 28.65 22 28.65 23.9C28.75 24 28.75 24.1 28.75 24.3ZM33.75 24C32.35 24 31.25 25.1 31.25 26.5C31.25 27.9 32.35 29 33.75 29C35.15 29 36.25 27.9 36.25 26.5C36.25 25.1 35.15 24 33.75 24ZM28.75 37.8C28.75 37.9 28.75 38 28.75 38.1C28.75 38.8 28.75 38.8 29.45 38.8C31.55 38.8 33.55 38.8 35.65 38.8C36.45 38.8 37.35 38.8 38.15 38.8C38.35 38.8 38.55 38.7 38.55 38.5C38.55 38.3 38.55 38 38.55 37.8C35.35 37.8 32.05 37.8 28.75 37.8ZM38.65 27.5C38.65 26.8 38.65 26.1 38.65 25.5C38.15 25.5 37.75 25.5 37.35 25.5C37.35 26.2 37.35 26.8 37.35 27.5C37.75 27.5 38.15 27.5 38.65 27.5ZM28.75 25.5C28.75 26.2 28.75 26.9 28.75 27.5C29.25 27.5 29.65 27.5 30.05 27.5C30.05 26.8 30.05 26.2 30.05 25.5C29.65 25.5 29.25 25.5 28.75 25.5Z" fill="#F99B2A"/>
<path d="M20.25 23.7C19.85 23.7 19.35 23.7 18.95 23.7C18.55 23.7 18.25 23.5 18.25 23.1C18.25 22.8 18.45 22.5 18.85 22.5C19.75 22.5 20.65 22.5 21.55 22.5C21.95 22.5 22.25 22.7 22.15 23.1C22.15 23.4 21.95 23.6 21.45 23.7C21.15 23.7 20.75 23.7 20.25 23.7Z" fill="#F99B2A"/>
<path d="M20.25 25.7C19.95 25.7 19.75 25.7 19.45 25.7C19.15 25.7 18.95 25.5 18.95 25.2C18.95 24.9 19.15 24.6 19.45 24.6C20.05 24.6 20.55 24.6 21.15 24.6C21.55 24.6 21.75 24.9 21.65 25.2C21.65 25.5 21.45 25.7 21.05 25.8C20.95 25.8 20.75 25.8 20.65 25.8C20.55 25.7 20.45 25.7 20.25 25.7Z" fill="#F99B2A"/>
<path d="M5.65001 22.7C6.45001 22.2 7.15001 22.2 7.85001 22.7C8.75001 22.2 9.65001 22.1 10.35 23C10.85 23.6 10.85 24.6 10.25 25.2C9.65001 25.9 8.75001 25.9 7.85001 25.4C7.15001 25.9 6.35001 25.9 5.65001 25.4C4.85001 26 3.85001 26 3.15001 25.2C2.65001 24.6 2.65 23.6 3.25001 23C3.95001 22.2 4.75001 22.2 5.65001 22.7ZM5.05001 24C5.05001 23.7 4.85001 23.5 4.55001 23.5C4.25001 23.5 3.95001 23.7 3.95001 24C3.95001 24.3 4.15001 24.5 4.45001 24.5C4.85001 24.6 5.05001 24.3 5.05001 24ZM7.35001 24C7.35001 23.7 7.05 23.5 6.75001 23.5C6.45001 23.5 6.25001 23.7 6.25001 24C6.25001 24.3 6.55001 24.5 6.85001 24.5C7.15001 24.5 7.35001 24.3 7.35001 24ZM8.55001 24C8.55001 24.3 8.75 24.5 9.05 24.5C9.35001 24.5 9.55 24.3 9.55 24C9.55 23.7 9.35001 23.5 9.05 23.5C8.75 23.5 8.55001 23.7 8.55001 24Z" fill="#F99B2A"/>
<path d="M33.65 33.1C33.05 33.1 32.35 33.1 31.75 33.1C31.25 33.1 31.05 32.9 31.05 32.5C31.05 32.1 31.35 31.9 31.75 31.9C33.05 31.9 34.35 31.9 35.65 31.9C36.05 31.9 36.35 32.1 36.35 32.5C36.35 32.9 36.05 33.1 35.65 33.1C35.05 33.1 34.35 33.1 33.65 33.1Z" fill="#EE2E24"/>
</g>
<defs>
<clipPath id="clip0_0_282">
<rect width="39.2" height="40" fill="white" transform="translate(0.650002)"/>
</clipPath>
</defs>
</svg>
