<svg width="32" height="40" viewBox="0 0 32 40" fill="none" xmlns="http://www.w3.org/2000/svg">
<g clip-path="url(#clip0_0_294)">
<path d="M30.55 0C31.05 0.3 31.25 0.7 31.25 1.4C31.15 2.8 31.25 4.3 31.15 5.7C31.05 6.7 30.75 7.7 30.35 8.6C29.55 10.1 29.25 11.8 29.25 13.5C29.25 17.9 29.25 22.3 29.25 26.7C29.25 28.3 29.55 29.9 30.35 31.4C31.05 32.7 31.35 34 31.35 35.5C31.35 36.6 31.35 37.7 31.35 38.7C31.35 39.3 31.15 39.8 30.65 40.1C20.85 40.1 10.95 40.1 1.15 40.1C0.45 39.7 0.25 39.3 0.25 38.6C0.35 37.2 0.25 35.7 0.35 34.3C0.45 33.3 0.75 32.4 1.15 31.5C1.95 29.8 2.35 28.1 2.25 26.2C2.25 26 2.25 25.8 2.25 25.7C2.25 25.3 2.55 25.1 2.85 25.1C3.15 25.1 3.45 25.3 3.45 25.7C3.55 27.6 3.45 29.5 2.55 31.3C1.75 32.9 1.35 34.6 1.45 36.4C1.45 37.2 1.45 38 1.45 38.9C1.85 38.9 2.35 38.9 2.75 38.9C2.75 38.5 2.75 38.1 2.75 37.7C2.75 37.3 2.95 37 3.35 37C3.75 37 3.95 37.3 3.95 37.7C3.95 38.1 3.95 38.5 3.95 38.8C3.95 38.8 3.95 38.8 3.95 38.9C4.35 38.9 4.75 38.9 5.15 38.9C5.15 38.5 5.15 38.1 5.15 37.7C5.15 37.5 5.25 37.2 5.45 37.1C5.55 37 5.85 37 6.05 37C6.25 37 6.35 37.3 6.35 37.5C6.35 37.9 6.35 38.4 6.35 38.8C6.85 38.8 7.25 38.8 7.65 38.8C7.65 38.4 7.65 38 7.65 37.6C7.65 37.1 7.85 36.9 8.25 36.9C8.65 36.9 8.85 37.2 8.85 37.6C8.85 38 8.85 38.4 8.85 38.8C9.25 38.8 9.65 38.8 10.15 38.8C10.15 38.4 10.15 38 10.15 37.6C10.15 37.1 10.35 36.9 10.75 36.9C11.15 36.9 11.35 37.2 11.35 37.6C11.35 38 11.35 38.4 11.35 38.8C11.75 38.8 12.25 38.8 12.65 38.8C12.65 38.4 12.65 38 12.65 37.6C12.65 37.2 12.85 36.9 13.25 36.9C13.55 36.9 13.85 37.2 13.85 37.6C13.85 38 13.85 38.4 13.85 38.8C14.25 38.8 14.65 38.8 15.15 38.8C15.15 38.4 15.15 38 15.15 37.6C15.15 37.1 15.35 36.9 15.75 36.9C16.15 36.9 16.35 37.2 16.35 37.6C16.35 38 16.35 38.3 16.35 38.7V38.8C16.75 38.8 17.15 38.8 17.65 38.8C17.65 38.4 17.65 37.9 17.65 37.5C17.65 37.3 17.85 37.1 18.05 37C18.15 36.9 18.45 37 18.65 37.1C18.75 37.2 18.85 37.4 18.85 37.6C18.85 38 18.85 38.4 18.85 38.9C19.25 38.9 19.65 38.9 20.15 38.9C20.15 38.5 20.15 38.1 20.15 37.7C20.15 37.2 20.35 36.9 20.75 37C21.15 37 21.35 37.3 21.35 37.7C21.35 38.1 21.35 38.4 21.35 38.8C21.35 38.8 21.35 38.8 21.35 38.9C21.75 38.9 22.15 38.9 22.65 38.9C22.65 38.5 22.65 38.1 22.65 37.7C22.65 37.2 22.85 37 23.25 37C23.65 37 23.85 37.3 23.85 37.8C23.85 38.2 23.85 38.6 23.85 39C24.25 39 24.75 39 25.15 39C25.15 38.6 25.15 38.2 25.15 37.7C25.15 37.3 25.35 37 25.75 37C26.05 37 26.35 37.2 26.35 37.7C26.35 38.1 26.35 38.5 26.35 39C26.75 39 27.25 39 27.65 39C27.65 38.6 27.65 38.2 27.65 37.8C27.65 37.4 27.85 37.1 28.25 37.1C28.55 37.1 28.85 37.4 28.85 37.8C28.85 38.2 28.85 38.6 28.85 39C29.35 39 29.75 39 30.15 39C30.15 37.9 30.15 36.8 30.15 35.7C30.15 34.4 29.85 33.1 29.25 31.9C28.45 30.3 28.05 28.6 28.05 26.9C28.05 22.4 28.05 17.8 28.05 13.3C28.05 11.6 28.35 10.1 29.15 8.6C29.85 7.3 30.15 5.9 30.15 4.5C30.15 3.5 30.15 2.5 30.15 1.4C29.75 1.4 29.25 1.4 28.85 1.4C28.85 1.8 28.85 2.2 28.85 2.6C28.85 3.1 28.65 3.3 28.25 3.3C27.95 3.3 27.65 3 27.65 2.6C27.65 2.2 27.65 1.8 27.65 1.4C27.25 1.4 26.75 1.4 26.35 1.4C26.35 1.8 26.35 2.2 26.35 2.6C26.35 3.1 26.15 3.3 25.75 3.3C25.45 3.3 25.15 3 25.15 2.6C25.15 2.2 25.15 1.8 25.15 1.4C24.75 1.4 24.25 1.4 23.85 1.4C23.85 1.8 23.85 2.2 23.85 2.6C23.85 3.1 23.65 3.3 23.25 3.3C22.85 3.3 22.65 3 22.65 2.6C22.65 2.2 22.65 1.8 22.65 1.4C22.25 1.4 21.75 1.4 21.35 1.4C21.35 1.8 21.35 2.2 21.35 2.6C21.35 3 21.15 3.3 20.75 3.3C20.45 3.3 20.15 3 20.15 2.6C20.15 2.2 20.15 1.8 20.15 1.3C19.75 1.3 19.25 1.3 18.85 1.3C18.85 1.7 18.85 2.1 18.85 2.5C18.85 2.9 18.65 3.2 18.25 3.2C17.95 3.2 17.65 2.9 17.65 2.5C17.65 2.1 17.65 1.7 17.65 1.3C17.25 1.3 16.85 1.3 16.35 1.3C16.35 1.7 16.35 2.1 16.35 2.5C16.35 2.7 16.25 2.9 16.15 3C16.05 3.1 15.75 3.2 15.55 3.1C15.35 3 15.25 2.7 15.15 2.6C15.05 2.2 15.15 1.7 15.15 1.2C14.75 1.2 14.35 1.2 13.85 1.2C13.85 1.6 13.85 2 13.85 2.5C13.85 3 13.35 3.3 12.95 3.1C12.75 3 12.75 2.8 12.65 2.6C12.65 2.4 12.65 2.2 12.65 2C12.65 1.8 12.65 1.6 12.65 1.3C12.25 1.3 11.75 1.3 11.35 1.3C11.35 1.6 11.35 1.8 11.35 2.1C11.35 2.9 11.15 3.2 10.75 3.2C10.35 3.2 10.15 2.9 10.15 2.1C10.15 1.8 10.15 1.6 10.15 1.3C9.75 1.3 9.35 1.3 8.85 1.3C8.85 1.7 8.85 2.1 8.85 2.5C8.85 3 8.65 3.2 8.25 3.2C7.85 3.2 7.65 2.9 7.65 2.5C7.65 2.1 7.65 1.7 7.65 1.3C7.25 1.3 6.75 1.3 6.35 1.3C6.35 1.7 6.35 2.1 6.35 2.6C6.35 3 6.15 3.3 5.75 3.3C5.45 3.1 5.25 2.9 5.25 2.5C5.25 2.1 5.25 1.7 5.25 1.2C4.85 1.2 4.45 1.2 3.95 1.2C3.95 1.6 3.95 2 3.95 2.3C3.95 2.8 3.75 3.1 3.35 3.1C2.95 3.1 2.75 2.8 2.75 2.3C2.75 1.9 2.75 1.5 2.75 1.1C2.35 1.1 1.85 1.1 1.45 1.1C1.45 1.3 1.45 1.5 1.45 1.7C1.45 3 1.45 4.3 1.55 5.6C1.65 6.5 1.95 7.3 2.25 8.1C3.05 9.8 3.45 11.5 3.45 13.4C3.45 16.5 3.45 19.5 3.45 22.6C3.45 22.7 3.45 22.9 3.45 23C3.35 23.3 3.15 23.5 2.85 23.5C2.55 23.5 2.35 23.3 2.35 23C2.35 22.9 2.35 22.7 2.35 22.6C2.35 19.4 2.35 16.2 2.35 13.1C2.35 11.6 2.05 10.2 1.35 8.9C0.55 7.4 0.25 5.9 0.25 4.2C0.25 3.2 0.25 2.3 0.25 1.3C0.25 0.7 0.45 0.3 0.95 0C10.85 0 20.65 0 30.55 0Z" fill="#EE2E24"/>
<path d="M9.75 14.4C10.85 14.3 11.85 14.2 12.75 14C14.55 13.6 16.35 13.1 18.25 12.7C18.85 12.6 19.45 12.5 20.05 12.4C20.15 12.4 20.25 12.4 20.45 12.3C19.45 11.3 18.35 10.6 17.05 10.4C15.35 9.99998 13.75 10.4 12.25 11.3C11.85 11.6 11.45 11.5 11.25 11.2C11.05 10.9 11.15 10.6 11.55 10.3C14.85 8.19998 19.25 8.89998 21.55 12C21.75 12.2 21.95 12.3 22.25 12.4C23.25 12.6 24.15 12.8 25.05 13C25.45 13.1 25.65 13.4 25.65 13.8C25.65 15.5 25.65 17.1 25.65 18.8C25.65 19.4 25.15 19.7 24.55 19.5C24.05 19.4 23.55 19.2 23.05 19.1C22.85 19 22.75 19.1 22.65 19.3C21.55 22 19.55 23.7 16.65 24.1C13.75 24.5 11.35 23.5 9.55 21.2C9.65 21 9.35 20.9 9.25 20.9C8.25 20.8 7.25 20.6 6.35 20.3C5.95 20.2 5.75 19.9 5.75 19.4C5.75 17.8 5.75 16.1 5.75 14.5C5.75 13.8 6.25 13.5 6.85 13.7C7.25 13.9 7.75 14 8.25 14.1C8.55 14.2 8.65 14.1 8.75 13.8C8.95 13.4 9.15 12.9 9.35 12.5C9.55 12.1 9.85 12 10.15 12.2C10.45 12.4 10.55 12.7 10.25 13.1C10.05 13.4 9.95 13.7 9.85 14C9.85 14.1 9.85 14.2 9.75 14.4ZM6.85 15.1C6.85 15.3 6.85 15.4 6.85 15.5C6.85 16.4 6.85 17.3 6.85 18.2C6.85 19.4 6.85 19.4 8.05 19.6C9.85 20 11.65 19.7 13.45 19.3C14.85 19 16.25 18.6 17.65 18.2C18.05 18.1 18.35 18.3 18.45 18.6C18.55 18.9 18.35 19.2 17.95 19.3C16.55 19.7 15.15 20 13.75 20.4C12.85 20.6 12.05 20.7 11.15 20.9C12.05 22.1 14.45 23.4 17.15 22.8C19.35 22.3 20.85 21 21.75 18.9C21.65 18.9 21.65 18.9 21.65 18.9C21.45 18.9 21.15 18.9 20.95 18.9C20.55 18.9 20.25 18.7 20.25 18.3C20.25 18 20.45 17.7 20.85 17.7C21.95 17.6 22.95 17.7 23.95 17.9C24.15 17.9 24.35 18 24.65 18.1C24.65 16.8 24.65 15.5 24.65 14.3C24.65 14 24.55 13.9 24.35 13.8C22.85 13.3 21.35 13.3 19.75 13.6C17.95 13.9 16.15 14.4 14.35 14.8C12.35 15.3 10.25 15.6 8.15 15.3C7.75 15.2 7.35 15.1 6.85 15.1Z" fill="#F99B2A"/>
<path d="M15.75 5.10002C11.55 5.10002 7.35 5.10002 3.15 5.10002C3.05 5.10002 2.85 5.10002 2.75 5.10002C2.45 5.00002 2.25 4.80002 2.25 4.50002C2.25 4.20002 2.45 4.00002 2.75 3.90002C2.85 3.90002 2.95 3.90002 3.05 3.90002C11.55 3.90002 20.05 3.90002 28.55 3.90002C28.85 3.90002 29.15 3.90002 29.25 4.30002C29.35 4.50002 29.25 4.80002 29.15 4.90002C29.05 5.00002 28.75 5.10002 28.55 5.10002C24.25 5.10002 19.95 5.10002 15.75 5.10002Z" fill="#EE2E24"/>
<path d="M15.15 36.1C11.15 36.1 7.15 36.1 3.15 36.1C3.05 36.1 2.85 36.1 2.75 36.1C2.45 36 2.25 35.8 2.25 35.5C2.25 35.2 2.45 35 2.75 34.9C2.85 34.9 2.95 34.9 3.15 34.9C11.15 34.9 19.25 34.9 27.25 34.9C27.35 34.9 27.55 34.9 27.65 34.9C27.95 35 28.15 35.2 28.15 35.5C28.15 35.8 27.95 36 27.65 36C27.55 36 27.45 36 27.25 36C23.15 36.1 19.15 36.1 15.15 36.1Z" fill="#EE2E24"/>
<path d="M15.75 27.3C18.05 27.3 20.35 27.3 22.65 27.3C22.75 27.3 22.95 27.3 23.05 27.3C23.35 27.3 23.55 27.5 23.55 27.8C23.55 28.1 23.45 28.3 23.15 28.4C23.05 28.4 22.85 28.4 22.65 28.4C17.95 28.4 13.35 28.4 8.65 28.4C8.55 28.4 8.35 28.4 8.25 28.4C7.95 28.3 7.75 28.1 7.75 27.8C7.75 27.5 7.95 27.3 8.25 27.2C8.45 27.2 8.55 27.2 8.75 27.2C11.15 27.3 13.45 27.3 15.75 27.3Z" fill="#F99B2A"/>
<path d="M15.75 30.9C14.35 30.9 12.95 30.9 11.45 30.9C11.05 30.9 10.75 30.7 10.75 30.3C10.75 29.9 10.95 29.7 11.45 29.7C12.05 29.7 12.75 29.7 13.35 29.7C15.55 29.7 17.75 29.7 19.95 29.7C20.25 29.7 20.55 29.8 20.65 30.1C20.75 30.5 20.45 30.8 20.05 30.8C18.85 30.8 17.65 30.8 16.45 30.8C16.15 30.9 15.95 30.9 15.75 30.9Z" fill="#F99B2A"/>
</g>
<defs>
<clipPath id="clip0_0_294">
<rect width="31" height="40" fill="white" transform="translate(0.25)"/>
</clipPath>
</defs>
</svg>
