<svg width="41" height="40" viewBox="0 0 41 40" fill="none" xmlns="http://www.w3.org/2000/svg">
<g clip-path="url(#clip0_0_305)">
<path d="M24.625 33.125C24.7908 33.125 24.9497 33.0592 25.0669 32.942C25.1842 32.8248 25.25 32.6658 25.25 32.5C25.25 31.3043 22.75 31.8917 22.75 33.75C22.75 35.6062 25.25 36.1997 25.25 35C25.25 34.8343 25.1842 34.6753 25.0669 34.5581C24.9497 34.4409 24.7908 34.375 24.625 34.375C24.4592 34.375 24.3003 34.3092 24.1831 34.192C24.0658 34.0748 24 33.9158 24 33.75C24 33.5843 24.0658 33.4253 24.1831 33.3081C24.3003 33.1909 24.4592 33.125 24.625 33.125Z" fill="#F99B2A"/>
<path d="M24.625 29.375C24.625 29.0042 24.515 28.6417 24.309 28.3333C24.103 28.025 23.8101 27.7846 23.4675 27.6427C23.1249 27.5008 22.7479 27.4637 22.3842 27.536C22.0205 27.6084 21.6864 27.787 21.4242 28.0492C21.162 28.3114 20.9834 28.6455 20.911 29.0092C20.8387 29.3729 20.8758 29.7499 21.0177 30.0925C21.1596 30.4351 21.4 30.728 21.7083 30.934C22.0167 31.14 22.3792 31.25 22.75 31.25C23.2471 31.2494 23.7237 31.0517 24.0752 30.7002C24.4267 30.3487 24.6244 29.8721 24.625 29.375ZM22.125 29.375C22.125 29.2514 22.1617 29.1306 22.2303 29.0278C22.299 28.925 22.3966 28.8449 22.5108 28.7976C22.625 28.7503 22.7507 28.7379 22.8719 28.762C22.9932 28.7861 23.1045 28.8457 23.1919 28.9331C23.2794 29.0205 23.3389 29.1318 23.363 29.2531C23.3871 29.3743 23.3747 29.5 23.3274 29.6142C23.2801 29.7284 23.2 29.826 23.0972 29.8947C22.9945 29.9634 22.8736 30 22.75 30C22.5843 29.9998 22.4254 29.9339 22.3083 29.8167C22.1911 29.6996 22.1252 29.5407 22.125 29.375Z" fill="#F99B2A"/>
<path d="M19.625 33.75C19.2541 33.75 18.8916 33.86 18.5833 34.066C18.275 34.272 18.0346 34.5649 17.8927 34.9075C17.7508 35.2501 17.7137 35.6271 17.786 35.9908C17.8584 36.3545 18.0369 36.6886 18.2992 36.9508C18.5614 37.2131 18.8955 37.3916 19.2592 37.464C19.6229 37.5363 19.9999 37.4992 20.3425 37.3573C20.6851 37.2154 20.978 36.975 21.184 36.6667C21.39 36.3584 21.5 35.9958 21.5 35.625C21.4994 35.1279 21.3017 34.6513 20.9502 34.2998C20.5987 33.9483 20.1221 33.7506 19.625 33.75ZM19.625 36.25C19.5014 36.25 19.3805 36.2133 19.2778 36.1447C19.175 36.076 19.0949 35.9784 19.0476 35.8642C19.0003 35.75 18.9879 35.6243 19.012 35.5031C19.0361 35.3818 19.0956 35.2705 19.183 35.1831C19.2705 35.0957 19.3818 35.0361 19.5031 35.012C19.6243 34.9879 19.75 35.0003 19.8642 35.0476C19.9784 35.0949 20.076 35.175 20.1447 35.2778C20.2133 35.3806 20.25 35.5014 20.25 35.625C20.2498 35.7907 20.1839 35.9496 20.0667 36.0667C19.9496 36.1839 19.7907 36.2498 19.625 36.25Z" fill="#F99B2A"/>
<path d="M25.4146 38.2109C21.9467 39.3833 18.0467 38.5859 15.3599 36.1852L15.8425 34.9314C17.5114 34.5307 18.2551 32.4771 17.3196 31.0954L18.9704 26.8079C21.6692 27.6417 23.2751 23.3208 20.7707 22.1316L22.125 18.6144L23.9636 23.3894C24.2609 24.1615 25.4272 23.7115 25.1302 22.9402L23.0354 17.5H26.071L26.7751 19.329C24.8937 20.902 26.2013 24.4269 29.0427 23.659C29.1225 23.6382 29.1973 23.6017 29.263 23.5517C29.3286 23.5017 29.3837 23.4393 29.4251 23.3679C29.4665 23.2966 29.4933 23.2177 29.5041 23.136C29.5148 23.0542 29.5093 22.9711 29.4878 22.8914C29.4663 22.8118 29.4292 22.7372 29.3787 22.672C29.3283 22.6067 29.2654 22.5521 29.1937 22.5113C29.122 22.4705 29.043 22.4443 28.9611 22.4341C28.8793 22.424 28.7962 22.4302 28.7167 22.4523C27.0634 22.8989 26.6437 20.7215 27.8193 20.1304C27.9579 20.0607 28.0656 19.9419 28.1215 19.7972C28.1774 19.6525 28.1775 19.4922 28.1217 19.3474L27.0833 16.6504C27.0379 16.5325 26.9579 16.4312 26.8538 16.3597C26.7496 16.2882 26.6263 16.25 26.5 16.25C22.0086 16.2524 21.7524 16.1032 21.5417 16.6504C19.3864 22.4762 19.1415 22.3769 19.4061 22.8387C19.4522 22.9192 19.5157 22.9885 19.592 23.0415C19.6683 23.0944 19.7554 23.1297 19.847 23.1448C21.199 23.3672 20.8659 24.9817 20.1406 25.4929C19.7978 25.7346 19.4017 25.715 18.9629 25.4349C18.8848 25.385 18.7966 25.3532 18.7047 25.3416C18.6128 25.33 18.5194 25.339 18.4314 25.3679C18.3434 25.3969 18.2629 25.445 18.1958 25.5089C18.1287 25.5727 18.0766 25.6507 18.0433 25.7372L16.0238 30.9825C15.9809 31.0939 15.9708 31.2152 15.9947 31.3322C16.0186 31.4491 16.0755 31.5568 16.1586 31.6424C16.83 32.3339 16.3781 33.6834 15.3512 33.7457C15.2315 33.7529 15.1165 33.7944 15.0198 33.8653C14.9231 33.9361 14.8488 34.0332 14.8057 34.1451L14.0417 36.1301C13.9978 36.2444 13.9883 36.369 14.0145 36.4886C14.0408 36.6081 14.1015 36.7174 14.1893 36.8027C17.3065 39.834 21.8409 40.7388 25.815 39.3952C25.972 39.3421 26.1015 39.2288 26.175 39.0802C26.2485 38.9317 26.26 38.76 26.2069 38.6029C26.1538 38.4459 26.0405 38.3164 25.8919 38.2429C25.7433 38.1694 25.5717 38.158 25.4146 38.2111V38.2109Z" fill="#F99B2A"/>
<path d="M39.625 25C39.0402 25 27.5143 25 25.875 25C25.7092 25 25.5503 25.0658 25.4331 25.1831C25.3158 25.3003 25.25 25.4592 25.25 25.625C25.25 25.7908 25.3158 25.9497 25.4331 26.0669C25.5503 26.1842 25.7092 26.25 25.875 26.25H26.5547L27.753 39.4316C27.7671 39.5868 27.8387 39.7312 27.9538 39.8364C28.0689 39.9415 28.2191 39.9999 28.375 40H37.125C37.281 40 37.4313 39.9417 37.5465 39.8365C37.6616 39.7313 37.7333 39.5869 37.7474 39.4316L38.2021 34.4261C38.2107 34.3438 38.2028 34.2605 38.179 34.1813C38.1552 34.102 38.1158 34.0283 38.0632 33.9643C38.0107 33.9004 37.9459 33.8475 37.8728 33.8088C37.7996 33.7701 37.7195 33.7463 37.637 33.7388C37.5546 33.7313 37.4715 33.7403 37.3925 33.7652C37.3136 33.7901 37.2404 33.8304 37.1771 33.8838C37.1139 33.9373 37.0619 34.0027 37.0242 34.0764C36.9864 34.1501 36.9637 34.2305 36.9573 34.313L36.5541 38.75H28.9458L27.8094 26.25H37.6907L37.4104 29.3348C37.3965 29.4993 37.4483 29.6626 37.5544 29.789C37.6604 29.9155 37.8122 29.9948 37.9766 30.0098C38.141 30.0247 38.3046 29.974 38.4317 29.8688C38.5589 29.7635 38.6392 29.6122 38.6552 29.448L38.9458 26.25H39.625C39.7908 26.25 39.9497 26.1842 40.0669 26.0669C40.1842 25.9497 40.25 25.7908 40.25 25.625C40.25 25.4592 40.1842 25.3003 40.0669 25.1831C39.9497 25.0658 39.7908 25 39.625 25Z" fill="#EE2E24"/>
<path d="M22.1255 14.9873C22.2059 15.0037 22.2888 15.0042 22.3693 14.9886C22.4499 14.9731 22.5267 14.9418 22.5952 14.8966C22.6637 14.8513 22.7226 14.7931 22.7686 14.7251C22.8145 14.6571 22.8467 14.5807 22.8631 14.5003C23.1385 13.1517 23.8987 11.9508 25 11.125C25.0237 11.1073 25.0461 11.0879 25.067 11.067C25.8968 10.2366 26.0189 8.68062 24.4166 7.34086C24.1249 7.09695 24.0195 6.68461 24.1041 6.45211C24.1243 6.39656 24.1759 6.24898 24.5338 6.25C32.1028 6.39406 32.4824 6.0282 32.6412 6.46203C32.725 6.69102 32.6312 7.09203 32.3336 7.34086C31.5428 8.00203 31.1248 8.72 31.0914 9.47461C31.0581 10.2213 31.4642 10.9104 31.7503 11.1249C32.4472 11.6504 33.013 12.3302 33.4033 13.1109C33.7937 13.8916 33.9979 14.7521 34 15.625C34 15.7908 34.0659 15.9497 34.1831 16.0669C34.3003 16.1842 34.4593 16.25 34.625 16.25C34.7908 16.25 34.9498 16.1842 35.067 16.0669C35.1842 15.9497 35.25 15.7908 35.25 15.625C35.2474 14.5691 35.0028 13.5278 34.5351 12.5811C34.0673 11.6345 33.3888 10.8076 32.5517 10.1641C32.041 9.53078 32.5138 8.8193 33.1353 8.29969C34.2666 7.35391 34.2004 5.46172 32.75 5.06742V0.625C32.75 0.45924 32.6842 0.300269 32.567 0.183058C32.4498 0.065848 32.2908 0 32.125 0L24.625 0C24.4593 0 24.3003 0.065848 24.1831 0.183058C24.0659 0.300269 24 0.45924 24 0.625V5.06695C22.5349 5.45758 22.4813 7.35211 23.6147 8.29977C24.2445 8.82625 24.7053 9.535 24.1984 10.1641C22.8798 11.1723 21.9705 12.6236 21.6384 14.25C21.6053 14.4123 21.638 14.5812 21.7293 14.7195C21.8207 14.8577 21.9632 14.954 22.1255 14.9873ZM25.25 1.25H31.5V2.5H27.125C26.9593 2.5 26.8003 2.56585 26.6831 2.68306C26.5659 2.80027 26.5 2.95924 26.5 3.125C26.5 3.29076 26.5659 3.44973 26.6831 3.56694C26.8003 3.68415 26.9593 3.75 27.125 3.75H31.5V5H25.25V1.25Z" fill="#EE2E24"/>
<path d="M7.125 29.375C7.125 29.2092 7.05915 29.0503 6.94194 28.933C6.82473 28.8158 6.66576 28.75 6.5 28.75C5.83719 28.7492 5.20173 28.4856 4.73306 28.0169C4.26438 27.5483 4.00074 26.9128 4 26.25C4 25.2988 5.38023 23.1424 6.5 21.6465C7.61977 23.1418 9 25.2977 9 26.25C9 26.4157 9.06585 26.5747 9.18306 26.6919C9.30027 26.8091 9.45924 26.875 9.625 26.875C9.79076 26.875 9.94973 26.8091 10.0669 26.6919C10.1842 26.5747 10.25 26.4157 10.25 26.25C10.25 24.3594 7.32164 20.6508 6.98773 20.2344C6.92917 20.1613 6.85494 20.1023 6.77052 20.0618C6.6861 20.0212 6.59365 20.0002 6.5 20.0002C6.40635 20.0002 6.3139 20.0212 6.22948 20.0618C6.14506 20.1023 6.07083 20.1613 6.01227 20.2344C5.67836 20.6508 2.75 24.3594 2.75 26.25C2.75 29.6959 7.125 30.8838 7.125 29.375Z" fill="#F99B2A"/>
<path d="M14.625 38.75H12.75V10.7981L15.8828 5.57742L19.0264 10.7987V16.875C19.0264 17.0408 19.0923 17.1997 19.2095 17.3169C19.3267 17.4342 19.4856 17.5 19.6514 17.5C19.8172 17.5 19.9761 17.4342 20.0933 17.3169C20.2106 17.1997 20.2764 17.0408 20.2764 16.875V10.625C20.2764 10.3069 20.3065 10.5617 16.5004 4.17969V0.625C16.5004 0.45924 16.4345 0.300269 16.3173 0.183058C16.2001 0.065848 16.0412 0 15.8754 0L4.625 0C4.45924 0 4.30027 0.065848 4.18306 0.183058C4.06585 0.300269 4 0.45924 4 0.625V4.20195L3.5 5.03555C3.45675 5.10595 3.42788 5.18424 3.41508 5.26588C3.40228 5.34751 3.40579 5.43088 3.42542 5.51114C3.44504 5.59141 3.48039 5.66699 3.52941 5.73351C3.57844 5.80003 3.64017 5.85617 3.71103 5.89867C3.78189 5.94118 3.86048 5.96921 3.94225 5.98115C4.02401 5.99309 4.10733 5.98869 4.18739 5.96822C4.26745 5.94774 4.34265 5.9116 4.40865 5.86187C4.47464 5.81214 4.53012 5.74982 4.57188 5.67852L4.97891 5H14.7712L11.7712 10H9.625C9.45924 10 9.30027 10.0658 9.18306 10.1831C9.06585 10.3003 9 10.4592 9 10.625C9 10.7908 9.06585 10.9497 9.18306 11.0669C9.30027 11.1842 9.45924 11.25 9.625 11.25H11.5V16.25H1.5V11.25H7.125C7.29076 11.25 7.44973 11.1842 7.56694 11.0669C7.68415 10.9497 7.75 10.7908 7.75 10.625C7.75 10.4592 7.68415 10.3003 7.56694 10.1831C7.44973 10.0658 7.29076 10 7.125 10H1.97875L2 9.96445C2.08318 9.8224 2.10696 9.65327 2.06617 9.49379C2.02538 9.3343 1.92333 9.19735 1.78216 9.11268C1.641 9.028 1.47212 9.00243 1.31222 9.04153C1.15232 9.08062 1.01429 9.18122 0.928125 9.32148C0.308203 10.356 0.25 10.3944 0.25 10.625V39.375C0.25 39.5408 0.315848 39.6997 0.433058 39.8169C0.550269 39.9342 0.70924 40 0.875 40H14.625C14.7908 40 14.9497 39.9342 15.0669 39.8169C15.1842 39.6997 15.25 39.5408 15.25 39.375C15.25 39.2092 15.1842 39.0503 15.0669 38.9331C14.9497 38.8158 14.7908 38.75 14.625 38.75ZM5.25 3.75V1.25H15.25V3.75H5.25ZM11.5 38.75H1.5V33.75H11.5V38.75ZM11.5 32.5H1.5V17.5H11.5V32.5Z" fill="#EE2E24"/>
<path d="M2.75 8.125C3.09518 8.125 3.375 7.84518 3.375 7.5C3.375 7.15482 3.09518 6.875 2.75 6.875C2.40482 6.875 2.125 7.15482 2.125 7.5C2.125 7.84518 2.40482 8.125 2.75 8.125Z" fill="#EE2E24"/>
<path d="M9 29.375C9.34518 29.375 9.625 29.0952 9.625 28.75C9.625 28.4048 9.34518 28.125 9 28.125C8.65482 28.125 8.375 28.4048 8.375 28.75C8.375 29.0952 8.65482 29.375 9 29.375Z" fill="#F99B2A"/>
<path d="M34.625 18.75C34.9702 18.75 35.25 18.4702 35.25 18.125C35.25 17.7798 34.9702 17.5 34.625 17.5C34.2798 17.5 34 17.7798 34 18.125C34 18.4702 34.2798 18.75 34.625 18.75Z" fill="#EE2E24"/>
<path d="M37.75 32.5C38.0952 32.5 38.375 32.2202 38.375 31.875C38.375 31.5298 38.0952 31.25 37.75 31.25C37.4048 31.25 37.125 31.5298 37.125 31.875C37.125 32.2202 37.4048 32.5 37.75 32.5Z" fill="#EE2E24"/>
<path d="M34.625 20C34.4592 20 34.3003 20.0658 34.1831 20.1831C34.0658 20.3003 34 20.4592 34 20.625V23.125C34 23.2908 34.0658 23.4497 34.1831 23.5669C34.3003 23.6842 34.4592 23.75 34.625 23.75C34.7908 23.75 34.9497 23.6842 35.0669 23.5669C35.1842 23.4497 35.25 23.2908 35.25 23.125V20.625C35.25 20.4592 35.1842 20.3003 35.0669 20.1831C34.9497 20.0658 34.7908 20 34.625 20Z" fill="#EE2E24"/>
</g>
<defs>
<clipPath id="clip0_0_305">
<rect width="40" height="40" fill="white" transform="translate(0.25)"/>
</clipPath>
</defs>
</svg>
