<svg width="41" height="40" viewBox="0 0 41 40" fill="none" xmlns="http://www.w3.org/2000/svg">
<g clip-path="url(#clip0_0_324)">
<path d="M10.0543 9.33856C9.42711 9.33856 8.82937 9.33856 8.24142 9.33856C7.66327 9.32876 7.42809 9.10338 7.42809 8.53503C7.42809 7.7413 7.42809 6.94757 7.42809 6.16365C7.42809 5.5757 7.66327 5.35032 8.27082 5.34052C8.86856 5.34052 9.45651 5.34052 10.0739 5.34052C10.0739 4.88976 10.0739 4.4782 10.0739 4.00784C9.50551 4.00784 8.92736 4.00784 8.34921 4.00784C7.63387 4.00784 7.42809 3.80206 7.42809 3.09652C7.42809 2.36159 7.42809 1.62665 7.42809 0.89172C7.42809 0.244978 7.65347 0.00979912 8.30021 0.00979912C11.6907 0.00979912 15.0714 0.00979912 18.4619 0.00979912C25.5467 0 32.6412 0 39.7358 0C40.5687 0 40.7451 0.176384 40.7451 0.989711C40.7451 1.64625 40.7451 2.29299 40.7451 2.94953C40.7451 3.83145 40.5785 3.99804 39.7162 3.99804C34.9146 3.99804 30.1131 3.99804 25.3115 3.99804C25.1449 3.99804 24.9783 3.99804 24.7823 3.99804C24.7823 4.439 24.7823 4.86036 24.7823 5.33072C24.9489 5.33072 25.1057 5.33072 25.2723 5.33072C30.1131 5.33072 34.9636 5.33072 39.8044 5.33072C40.5491 5.33072 40.7451 5.5267 40.7451 6.26164C40.7451 6.95737 40.7451 7.65311 40.7451 8.34885C40.7451 9.15238 40.5687 9.33856 39.775 9.33856C34.944 9.33856 30.1131 9.33856 25.2821 9.33856C25.1155 9.33856 24.9587 9.33856 24.7725 9.33856C24.7725 12.0039 24.7725 14.6399 24.7725 17.3346C24.9097 17.3346 25.0567 17.3346 25.2037 17.3346C26.7813 17.3346 28.3688 17.3346 29.9465 17.3248C30.2894 17.3248 30.5246 17.4424 30.701 17.7364C31.7789 19.4708 32.8568 21.1955 33.9347 22.9299C34.2091 23.3709 34.1209 23.7531 33.7289 23.9588C33.386 24.1352 33.0626 24.0274 32.8176 23.6453C32.1219 22.538 31.4359 21.4307 30.7402 20.3332C30.6618 20.2058 30.5736 20.0882 30.4462 19.8824C30.2306 21.1563 30.0347 22.342 29.8387 23.5179C29.0645 28.1235 28.3002 32.7389 27.5261 37.3444C27.4673 37.6972 27.4183 38.0598 27.3301 38.4027C27.0655 39.4121 26.311 39.9902 25.2625 39.9902C20.0396 39.9902 14.8264 39.9902 9.6035 39.9902C8.4374 39.9902 7.62407 39.3141 7.43789 38.1676C6.53637 32.778 5.64465 27.3885 4.75293 21.999C4.64514 21.3229 4.51775 20.6467 4.39037 19.8824C4.27278 20.0588 4.18458 20.1666 4.11599 20.2744C3.42025 21.3817 2.73432 22.489 2.04838 23.5963C1.7936 23.998 1.48983 24.1058 1.14686 23.9294C0.745094 23.7237 0.637304 23.3513 0.911679 22.9103C1.40164 22.1068 1.91119 21.3131 2.41094 20.5096C2.9401 19.6668 3.49865 18.8339 3.9886 17.9618C4.26298 17.4718 4.62554 17.3052 5.1743 17.315C6.80095 17.3444 8.4178 17.3248 10.0739 17.3248C10.0543 14.6693 10.0543 12.0235 10.0543 9.33856ZM5.77204 19.9706C5.79164 20.098 5.79164 20.1568 5.80144 20.2058C6.78135 26.0853 7.76126 31.9745 8.74117 37.854C8.84896 38.5105 9.01555 38.6575 9.67209 38.6575C14.8362 38.6575 20.0004 38.6575 25.1645 38.6575C25.7426 38.6575 25.968 38.4811 26.0758 37.9128C26.2032 37.2562 26.3012 36.5997 26.409 35.9432C27.1243 31.6707 27.8299 27.4081 28.5452 23.1357C28.7118 22.1068 28.8784 21.0877 29.0645 19.9706C28.8882 20.1372 28.7902 20.2254 28.6922 20.3234C27.6633 21.3523 26.6148 22.3714 25.6055 23.4199C25.2135 23.8315 24.8019 24.0078 24.2238 23.998C19.628 23.9784 15.0322 23.9784 10.4364 23.9882C9.98566 23.9882 9.65249 23.8609 9.33892 23.5375C8.19242 22.3714 7.01653 21.2151 5.77204 19.9706ZM28.4178 18.7065C21.0587 18.7065 13.7681 18.7065 6.40898 18.7065C7.71227 20.0098 8.96655 21.2739 10.2306 22.5184C10.3188 22.6066 10.4952 22.6556 10.6324 22.6556C15.1596 22.6654 19.677 22.6654 24.2042 22.6556C24.3414 22.6556 24.508 22.5968 24.6059 22.5086C25.87 21.2641 27.1243 20 28.4178 18.7065ZM8.77057 2.63596C19.0009 2.63596 29.1919 2.63596 39.383 2.63596C39.383 2.1852 39.383 1.76384 39.383 1.36208C29.1625 1.36208 18.9715 1.36208 8.77057 1.36208C8.77057 1.80304 8.77057 2.2048 8.77057 2.63596ZM20.7549 17.315C20.7549 15.7864 20.7549 14.3067 20.7549 12.8172C20.7549 12.2881 20.9999 11.9941 21.4212 11.9941C21.8426 11.9941 22.0876 12.2979 22.0876 12.827C22.0876 14.1695 22.0876 15.5218 22.0876 16.8643C22.0876 17.0113 22.0876 17.1583 22.0876 17.2954C22.5677 17.2954 22.9891 17.2954 23.4007 17.2954C23.4007 12.8466 23.4007 8.44684 23.4007 4.02744C22.9597 4.02744 22.5383 4.02744 22.0876 4.02744C22.0876 4.91916 22.0876 5.78148 22.0876 6.634C22.0876 7.10436 21.8426 7.37874 21.4408 7.37874C21.0195 7.38854 20.7745 7.11416 20.7647 6.6144C20.7647 6.38902 20.7647 6.17344 20.7647 5.94806C20.7647 5.30132 20.7647 4.65458 20.7647 4.00784C20.2943 4.00784 19.8828 4.00784 19.4614 4.00784C19.4614 8.44684 19.4614 12.8662 19.4614 17.3052C19.8828 17.315 20.2943 17.315 20.7549 17.315ZM24.7725 7.97648C29.6721 7.97648 34.5325 7.97648 39.383 7.97648C39.383 7.52572 39.383 7.10436 39.383 6.6928C34.4933 6.6928 29.6427 6.6928 24.7725 6.6928C24.7725 7.11416 24.7725 7.52572 24.7725 7.97648ZM12.7392 4.03724C12.2787 4.03724 11.8573 4.03724 11.4457 4.03724C11.4457 8.47624 11.4457 12.8858 11.4457 17.3052C11.8867 17.3052 12.3081 17.3052 12.7392 17.3052C12.7392 12.876 12.7392 8.46644 12.7392 4.03724ZM14.1209 4.01764C14.1209 8.46644 14.1209 12.8858 14.1209 17.2954C14.5716 17.2954 14.993 17.2954 15.4046 17.2954C15.4046 12.8564 15.4046 8.44684 15.4046 4.01764C14.9636 4.01764 14.5618 4.01764 14.1209 4.01764ZM16.7863 4.01764C16.7863 8.46644 16.7863 12.8858 16.7863 17.3052C17.2272 17.3052 17.6388 17.3052 18.0699 17.3052C18.0699 12.8662 18.0699 8.44684 18.0699 4.01764C17.629 4.01764 17.2174 4.01764 16.7863 4.01764ZM10.0641 7.97648C10.0641 7.51592 10.0641 7.10436 10.0641 6.6928C9.62309 6.6928 9.20173 6.6928 8.78037 6.6928C8.78037 7.14356 8.78037 7.55512 8.78037 7.97648C9.22133 7.97648 9.63289 7.97648 10.0641 7.97648Z" fill="#EE2E24"/>
<path d="M17.433 25.9971C20.3629 26.0069 22.7539 28.4077 22.7441 31.3376C22.7441 34.2871 20.3237 36.6781 17.3742 36.6585C14.4541 36.6487 12.0729 34.2381 12.0827 31.2984C12.0925 28.3783 14.5031 25.9971 17.433 25.9971ZM13.4251 31.3082C13.4154 33.5228 15.1988 35.316 17.4036 35.3258C19.6084 35.3356 21.4114 33.5522 21.4212 31.3474C21.431 29.1426 19.6476 27.3396 17.4428 27.3298C15.2282 27.32 13.4251 29.1034 13.4251 31.3082Z" fill="#F99B2A"/>
<path d="M22.0778 9.70115C22.0778 9.85793 22.0876 10.0049 22.0778 10.1617C22.0386 10.5047 21.7642 10.7301 21.4212 10.7301C21.0782 10.7301 20.7941 10.4949 20.7647 10.1617C20.7451 9.88733 20.7451 9.60316 20.7647 9.32878C20.7843 8.92702 21.0586 8.67224 21.4212 8.67224C21.7838 8.67224 22.0484 8.93682 22.0778 9.33858C22.0876 9.45617 22.0778 9.57376 22.0778 9.70115Z" fill="#F99B2A"/>
</g>
<defs>
<clipPath id="clip0_0_324">
<rect width="39.9902" height="40" fill="white" transform="translate(0.754883)"/>
</clipPath>
</defs>
</svg>
