<svg width="45" height="44" viewBox="0 0 45 44" fill="none" xmlns="http://www.w3.org/2000/svg">
<path d="M3.6875 21.3125C3.68748 21.3429 3.68949 21.3732 3.69352 21.4034L6.28445 40.8351C6.35178 41.3299 6.59585 41.7837 6.97159 42.1127C7.34734 42.4417 7.8294 42.6236 8.32881 42.625H37.375C37.9218 42.6243 38.4461 42.4068 38.8327 42.0202C39.2194 41.6335 39.4369 41.1093 39.4375 40.5625V37.858L42.1815 17.2784C42.1815 17.2754 42.1815 17.2725 42.1822 17.2698C42.1838 17.2559 42.1847 17.2418 42.1855 17.2276C42.1861 17.2173 42.1869 17.2071 42.1871 17.1968C42.1871 17.1937 42.1871 17.1908 42.1871 17.1882V14.4375C42.1871 14.2551 42.1146 14.0803 41.9857 13.9513C41.8568 13.8224 41.6819 13.75 41.4996 13.75H27.75C27.5677 13.75 27.3928 13.8224 27.2639 13.9513C27.1349 14.0803 27.0625 14.2551 27.0625 14.4375V17.1875C27.0625 17.1906 27.0625 17.1935 27.0625 17.1961C27.0625 17.2064 27.0634 17.2166 27.064 17.2269C27.0649 17.2411 27.0658 17.2552 27.0674 17.2691C27.0674 17.272 27.0674 17.275 27.0681 17.2777L28.3356 26.7837C26.9534 26.6787 26.5261 26.3046 26.401 26.1292C26.3564 26.0661 26.3266 25.9938 26.3138 25.9177C26.301 25.8416 26.3055 25.7635 26.327 25.6893C26.3734 25.5875 26.393 25.4755 26.384 25.3639C26.375 25.2524 26.3376 25.145 26.2754 25.052C26.2108 24.9561 26.1231 24.8782 26.0203 24.8254C25.9175 24.7726 25.803 24.7466 25.6875 24.75C24.3196 24.75 23.2654 25.0164 22.397 25.4122L22.9315 21.4034C22.9355 21.3732 22.9375 21.3429 22.9375 21.3125C22.9362 19.6651 22.4801 18.0501 21.6195 16.6454C20.7589 15.2408 19.5272 14.101 18.0601 13.3517C18.1188 13.2263 18.1381 13.0861 18.1156 12.9495L17.4281 8.82446C17.4014 8.66394 17.3186 8.5181 17.1944 8.41291C17.0702 8.30771 16.9127 8.24998 16.75 8.24997H16.0625V5.49997H20.875C21.0573 5.49997 21.2322 5.42754 21.3611 5.29861C21.4901 5.16968 21.5625 4.99481 21.5625 4.81247V2.06247C21.5625 1.96834 21.5432 1.87521 21.5057 1.78886C21.4682 1.7025 21.4134 1.62476 21.3447 1.56045C21.2759 1.49614 21.1947 1.44663 21.1061 1.415C21.0174 1.38336 20.9232 1.37026 20.8293 1.37652L10.5168 2.06402C10.3806 2.0731 10.2502 2.12251 10.1422 2.20595C10.0342 2.28939 9.95349 2.40308 9.91032 2.53255L9.22282 4.59505C9.18837 4.6984 9.17897 4.80845 9.19539 4.91613C9.21182 5.02382 9.2536 5.12607 9.31729 5.21444C9.38098 5.30282 9.46476 5.37479 9.56173 5.42443C9.65869 5.47408 9.76607 5.49997 9.875 5.49997H10.5625V8.24997H9.875C9.71226 8.24998 9.55479 8.30771 9.43062 8.41291C9.30645 8.5181 9.22362 8.66394 9.19687 8.82446L8.50937 12.9495C8.48689 13.0861 8.50624 13.2263 8.56488 13.3517C7.09782 14.101 5.86611 15.2408 5.0055 16.6454C4.14489 18.0501 3.6888 19.6651 3.6875 21.3125ZM31.875 41.25H15.2862C15.1275 41.2498 14.9753 41.1867 14.863 41.0744C14.7508 40.9622 14.6877 40.81 14.6875 40.6512V33.5987C14.6877 33.4399 14.7508 33.2878 14.863 33.1755C14.9753 33.0633 15.1275 33.0001 15.2862 33H31.9638C32.1225 33.0001 32.2747 33.0633 32.387 33.1755C32.4992 33.2878 32.5623 33.4399 32.5625 33.5987V40.6512C32.5623 40.81 32.4992 40.9622 32.387 41.0744C32.2747 41.1867 32.1225 41.2498 31.9638 41.25H31.875ZM16.75 30.25H30.5V31.625H16.75V30.25ZM38.0625 40.5625C38.0623 40.7447 37.9898 40.9195 37.8609 41.0484C37.732 41.1773 37.5573 41.2498 37.375 41.25H33.8444C33.9062 41.0564 33.9376 40.8544 33.9375 40.6512V38.5H38.0625V40.5625ZM38.1484 37.125H33.9375V33.5987C33.9369 33.0754 33.7288 32.5737 33.3588 32.2037C32.9887 31.8337 32.4871 31.6256 31.9638 31.625H31.875V29.5625C31.875 29.5432 31.8737 29.5243 31.8722 29.5054C31.8722 29.5027 31.8715 29.4978 31.871 29.4935V29.4912C31.8193 29.0406 31.6831 28.6038 31.4695 28.2037C31.2972 27.8675 31.0521 27.5739 30.7521 27.3443C30.4521 27.1147 30.1047 26.9549 29.7352 26.8764L28.5352 17.875H40.7148L38.1484 37.125ZM28.4375 15.125H40.8125V16.5H28.4375V15.125ZM25.2508 26.8832C25.8321 27.7487 27.1355 28.1875 29.125 28.1875C29.6406 28.1875 29.9958 28.3911 30.2439 28.8283C30.2525 28.8439 30.2611 28.8594 30.269 28.875H19.9315C20.2249 28.6502 20.5043 28.4141 20.7812 28.1797C21.9007 27.2324 22.9646 26.3321 24.9583 26.156C25.0026 26.4165 25.1023 26.6645 25.2508 26.8832ZM11.0688 3.40525L20.1875 2.79733V4.12497H10.8289L11.0688 3.40525ZM11.9375 5.49997H14.6875V8.24997H11.9375V5.49997ZM9.99909 12.375L10.4574 9.62497H16.1676L16.6259 12.375H9.99909ZM12.625 13.75H14C15.9973 13.7522 17.9128 14.5435 19.3293 15.9516C20.7458 17.3598 21.5484 19.2705 21.5625 21.2678L20.8884 26.3226C20.5346 26.5874 20.2086 26.8628 19.893 27.1299C18.7867 28.0664 17.831 28.875 16.0625 28.875C15.8802 28.875 15.7053 28.9474 15.5764 29.0763C15.4474 29.2053 15.375 29.3801 15.375 29.5625V31.625H15.2862C14.7629 31.6256 14.2613 31.8337 13.8912 32.2037C13.5212 32.5737 13.3131 33.0754 13.3125 33.5987V40.6512C13.3124 40.8544 13.3438 41.0564 13.4056 41.25H8.32881C8.16234 41.2495 8.00165 41.1888 7.8764 41.0792C7.75115 40.9695 7.66979 40.8182 7.64733 40.6533L5.0625 21.2678C5.07655 19.2705 5.87924 17.3598 7.29572 15.9516C8.7122 14.5435 10.6277 13.7522 12.625 13.75Z" fill="#EE2E24"/>
<path d="M23.625 34.375C23.0811 34.375 22.5494 34.5363 22.0972 34.8385C21.645 35.1406 21.2925 35.5701 21.0843 36.0726C20.8762 36.5751 20.8217 37.1281 20.9278 37.6615C21.034 38.195 21.2959 38.685 21.6805 39.0696C22.0651 39.4542 22.5551 39.7161 23.0885 39.8222C23.622 39.9283 24.1749 39.8738 24.6774 39.6657C25.1799 39.4575 25.6094 39.1051 25.9116 38.6528C26.2137 38.2006 26.375 37.6689 26.375 37.125C26.3742 36.3959 26.0842 35.6969 25.5687 35.1814C25.0531 34.6658 24.3541 34.3758 23.625 34.375ZM23.625 38.5C23.3531 38.5 23.0872 38.4194 22.8611 38.2683C22.635 38.1172 22.4587 37.9024 22.3547 37.6512C22.2506 37.3999 22.2234 37.1235 22.2764 36.8568C22.3295 36.59 22.4604 36.345 22.6527 36.1527C22.845 35.9604 23.09 35.8295 23.3568 35.7764C23.6235 35.7234 23.8999 35.7506 24.1512 35.8547C24.4024 35.9587 24.6172 36.135 24.7683 36.3611C24.9194 36.5872 25 36.8531 25 37.125C24.9996 37.4895 24.8546 37.839 24.5968 38.0968C24.339 38.3546 23.9895 38.4996 23.625 38.5Z" fill="#F99B2A"/>
<path d="M34.625 24.75C36.5844 24.75 38.0625 23.8634 38.0625 22.6875C38.0625 21.5116 36.5844 20.625 34.625 20.625C32.6656 20.625 31.1875 21.5116 31.1875 22.6875C31.1875 23.8634 32.6656 24.75 34.625 24.75ZM34.625 22C35.956 22 36.6875 22.5164 36.6875 22.6875C36.6875 22.8586 35.956 23.375 34.625 23.375C33.294 23.375 32.5625 22.8586 32.5625 22.6875C32.5625 22.5164 33.294 22 34.625 22Z" fill="#F99B2A"/>
<path d="M9.1875 24.0625H17.4375C17.6198 24.0625 17.7947 23.9901 17.9236 23.8611C18.0526 23.7322 18.125 23.5573 18.125 23.375V19.25C18.125 19.0677 18.0526 18.8928 17.9236 18.7639C17.7947 18.6349 17.6198 18.5625 17.4375 18.5625H9.1875C9.00516 18.5625 8.8303 18.6349 8.70136 18.7639C8.57243 18.8928 8.5 19.0677 8.5 19.25V23.375C8.5 23.5573 8.57243 23.7322 8.70136 23.8611C8.8303 23.9901 9.00516 24.0625 9.1875 24.0625ZM9.875 19.9375H16.75V22.6875H9.875V19.9375Z" fill="#F99B2A"/>
</svg>
