<svg width="45" height="44" viewBox="0 0 45 44" fill="none" xmlns="http://www.w3.org/2000/svg">
<g clip-path="url(#clip0_0_339)">
<path d="M38.15 0H30.8166C30.4117 0 30.0833 0.328353 30.0833 0.733333V2.93333C30.0833 3.28174 30.3286 3.58216 30.6698 3.65199L31.3717 3.79271C31.9696 3.9141 32.5322 4.17012 33.0166 4.54072V4.68753C33.0181 6.0944 32.3148 7.40853 31.1429 8.1877L31.9571 9.40801C33.1051 8.64281 33.934 7.4848 34.2874 6.15133C34.378 6.35257 34.4518 6.56133 34.5077 6.7751C34.5879 7.10202 34.8804 7.3319 35.2166 7.33333H36.6833V9.42555L34.6974 16.0445L36.1025 16.4663L37.9623 10.2667H41.2043L42.55 17.6659V34.4667C42.55 35.6816 41.5649 36.6667 40.35 36.6667H38.4558V38.1333H40.35C42.3742 38.1308 44.0141 36.4909 44.0166 34.4667V17.6C44.0166 17.556 44.0123 17.5119 44.0041 17.4686L42.55 9.4696V7.33333H44.0166C44.4216 7.33333 44.75 7.00498 44.75 6.6C44.746 2.95661 41.7934 0.00393881 38.15 0ZM41.0833 8.8H38.15V7.33333H41.0833V8.8ZM41.8166 5.86667H35.757C35.0935 4.0652 33.5437 2.73604 31.6621 2.35469L31.55 2.33213V1.46667H38.15C40.7005 1.46989 42.8633 3.34261 43.2314 5.86667H41.8166Z" fill="#EE2E24"/>
<path d="M4.41667 38.1333H9.55V36.6667H4.41667C3.20173 36.6667 2.21667 35.6816 2.21667 34.4667V23.9662C2.21667 23.2164 2.32122 22.4705 2.52747 21.7501L3.6554 17.8016C3.69622 17.6594 3.69264 17.5083 3.64538 17.3683L2.35739 13.5051C1.99968 12.4287 2.33734 11.2435 3.20889 10.5173L6.14867 8.06667H12.9513L15.0779 9.83984L16.0172 8.71335L13.95 6.98923V5.13333C13.95 4.9389 13.8727 4.75234 13.7352 4.61484L12.4833 3.36302V0.733333C12.4833 0.328353 12.155 0 11.75 0H7.35C6.94502 0 6.61667 0.328353 6.61667 0.733333V3.36302L5.36484 4.61484C5.22734 4.75234 5.15 4.9389 5.15 5.13333V6.98923L2.2693 9.39046C0.934766 10.5034 0.419141 12.3209 0.969858 13.9691L2.18516 17.6168L1.11667 21.3465C0.873178 22.1984 0.749643 23.0799 0.750001 23.9662V34.4667C0.752507 36.4909 2.39248 38.1308 4.41667 38.1333ZM8.08333 1.46667H11.0167V2.93333H8.08333V1.46667ZM6.61667 5.43698L7.65365 4.4H11.4464L12.4833 5.43698V6.6H6.61667V5.43698Z" fill="#EE2E24"/>
<path d="M13.95 12.4667C13.95 10.8217 12.0168 9.53333 9.55002 9.53333C7.08326 9.53333 5.15002 10.8217 5.15002 12.4667C5.15002 14.1116 7.08326 15.4 9.55002 15.4C12.0168 15.4 13.95 14.1116 13.95 12.4667ZM6.61669 12.4667C6.61669 11.7745 7.87138 11 9.55002 11C11.2287 11 12.4834 11.7745 12.4834 12.4667C12.4834 13.1588 11.2287 13.9333 9.55002 13.9333C7.87138 13.9333 6.61669 13.1588 6.61669 12.4667Z" fill="#F99B2A"/>
<path d="M8.74328 24.3232L9.23599 22.9424L4.66304 21.3093C4.43853 21.2291 4.18895 21.2631 3.99416 21.4006C3.79937 21.5381 3.68335 21.7615 3.68335 22V30.8C3.68586 32.8242 5.32583 34.4641 7.35002 34.4667H8.81668V33H7.35002C6.13508 33 5.15002 32.0149 5.15002 30.8V23.0405L8.74328 24.3232Z" fill="#F99B2A"/>
<path d="M28.486 23.7635C30.518 26.4448 31.1744 29.9242 30.2584 33.1615C29.9079 34.3016 30.541 35.5112 31.6775 35.8732C32.814 36.2352 34.03 35.6143 34.4035 34.4814C36.0485 29.8228 35.1902 24.6465 32.1301 20.7679L31.8368 20.3934C31.039 19.3728 29.5666 19.1888 28.5422 19.9812C27.5174 20.774 27.3258 22.2453 28.1129 23.2737L28.486 23.7635ZM29.1169 21.6405C29.1939 21.3079 29.4553 21.049 29.789 20.9749C30.1224 20.9011 30.4686 21.025 30.6795 21.2939L30.9728 21.6685C33.7235 25.1536 34.4952 29.8057 33.0167 33.9923C32.9186 34.2275 32.7052 34.3947 32.4531 34.4341C32.2013 34.4735 31.9471 34.3793 31.7817 34.1853C31.6478 34.0076 31.6048 33.7774 31.6667 33.564C32.708 29.8819 31.9614 25.9245 29.6501 22.8748L29.2723 22.3792C29.113 22.1687 29.0557 21.8976 29.1169 21.6405Z" fill="#EE2E24"/>
<path d="M14.0732 43.6738C14.2093 43.8776 14.4381 44 14.6834 44H32.2834C32.5061 44 32.717 43.899 32.8559 43.725L34.6892 41.4326C37.8772 37.4462 39.341 32.3519 38.7548 27.2816C38.169 22.2109 35.5819 17.5846 31.569 14.4307L28.6167 12.1104V9.53336C28.6167 9.12838 28.2883 8.80002 27.8834 8.80002H27.15V5.86669C27.15 5.05673 26.4933 4.40002 25.6834 4.40002H19.8167C19.0067 4.40002 18.35 5.05673 18.35 5.86669V8.80002H17.6167C17.2117 8.80002 16.8834 9.12838 16.8834 9.53336V12.1953L15.9051 13.3372C8.59719 21.9091 7.84989 34.2844 14.0732 43.6738ZM19.8167 5.86669H25.6834V8.80002H19.8167V5.86669ZM17.0183 14.2911L18.1731 12.944C18.2874 12.8112 18.35 12.6418 18.35 12.4667V10.2667H27.15V11.7334H19.8167V13.2H27.6295L30.6634 15.5834C34.3691 18.4959 36.7578 22.7677 37.2989 27.4499C37.8399 32.1317 36.4882 36.8357 33.5448 40.5167L31.9314 42.5334H15.0794C9.44332 33.7176 10.2304 22.2539 17.0183 14.2911Z" fill="#EE2E24"/>
<path d="M21.65 38.1333C24.4795 38.1351 27.1206 36.7154 28.6797 34.3546C28.7828 34.1992 28.8229 34.0108 28.7918 33.8272C27.903 28.5474 25.9071 24.4023 22.8571 21.5073C22.7371 21.3931 22.5821 21.3225 22.417 21.3078C22.1635 21.2821 21.9096 21.2667 21.65 21.2667C16.9926 21.2667 13.2167 25.0425 13.2167 29.7C13.2167 34.3575 16.9926 38.1333 21.65 38.1333ZM21.65 22.7333C21.7782 22.7333 21.906 22.7383 22.0321 22.7466C24.6882 25.3602 26.4571 29.0687 27.2954 33.7788C25.3679 36.4479 21.8351 37.4032 18.8252 36.0694C15.8152 34.7356 14.1498 31.4771 14.8319 28.2563C15.5141 25.0357 18.3579 22.7323 21.65 22.7333Z" fill="#F99B2A"/>
</g>
<defs>
<clipPath id="clip0_0_339">
<rect width="44" height="44" fill="white" transform="translate(0.75)"/>
</clipPath>
</defs>
</svg>
