<svg width="47" height="44" viewBox="0 0 47 44" fill="none" xmlns="http://www.w3.org/2000/svg">
<g clip-path="url(#clip0_0_423)">
<path d="M0.0381775 2.47448C0.0748365 2.37367 0.111496 2.27286 0.13899 2.17205C0.533074 0.843158 1.62368 0.00916476 3.02589 0.00916476C6.05942 0 9.10212 0 12.1448 0C18.7709 0 25.3971 0 32.0323 0C34.0486 0 35.24 1.20058 35.24 3.22599C35.24 10.6494 35.24 18.0729 35.24 25.4964C35.24 25.7713 35.24 26.0462 35.24 26.3945C35.4141 26.3945 35.5791 26.3945 35.7349 26.3945C38.1911 26.3945 40.6564 26.3945 43.1125 26.3945C44.5972 26.3945 45.4862 27.3018 45.5137 28.7957C45.5229 29.5105 45.4679 30.1979 44.9455 30.7844C45.6695 31.6642 45.5504 32.6632 45.4221 33.708C45.9628 33.7721 46.6043 33.5613 46.9709 34.1845C46.9709 36.6315 46.9709 39.0694 46.9709 41.5163C46.2194 43.4959 45.5137 43.9908 43.3875 43.9908C35.0476 43.9908 26.7168 43.9908 18.3769 43.9908C13.2904 43.9908 8.20398 43.9908 3.1267 43.9908C1.90779 43.9908 0.982148 43.4776 0.395603 42.4053C0.248967 42.1304 0.166484 41.8096 0.056507 41.5163C0.0381775 28.5024 0.0381775 15.4884 0.0381775 2.47448ZM29.6953 42.5245C29.5762 42.0754 29.3929 41.6813 29.3837 41.2872C29.3562 39.0144 29.3654 36.7323 29.3746 34.4595C29.3746 34.0196 29.6587 33.7538 30.0986 33.7263C30.3735 33.708 30.6393 33.7263 30.9142 33.7263C30.7951 32.6724 30.6485 31.6642 31.3725 30.8027C30.676 29.813 30.6301 28.7315 31.0426 27.6867C31.5191 26.5045 32.6006 26.3029 33.737 26.3762C33.737 20.9781 33.737 15.6351 33.737 10.2829C22.9867 10.2829 12.264 10.2829 1.50454 10.2829C1.50454 10.4753 1.50454 10.6403 1.50454 10.8144C1.50454 20.7857 1.50454 30.7661 1.50454 40.7373C1.50454 41.9838 2.03609 42.5153 3.29167 42.5153C11.0542 42.5153 18.8076 42.5153 26.5702 42.5153C27.6058 42.5245 28.6506 42.5245 29.6953 42.5245ZM33.7645 8.789C33.7645 6.8644 33.7645 4.98563 33.7645 3.11602C33.7645 2.06207 33.1779 1.47553 32.1148 1.47553C22.4643 1.47553 12.8138 1.47553 3.16336 1.47553C2.10025 1.47553 1.5137 2.06207 1.5137 3.10685C1.5137 4.86649 1.5137 6.61695 1.5137 8.37659C1.5137 8.5049 1.53203 8.64237 1.5412 8.789C12.2731 8.789 22.9959 8.789 33.7645 8.789ZM30.8318 35.211C30.8318 37.1264 30.8318 38.9869 30.8318 40.8473C30.8318 41.9471 31.4 42.5245 32.4906 42.5245C36.2756 42.5245 40.0607 42.5245 43.8457 42.5245C44.9088 42.5245 45.4862 41.9379 45.4862 40.8748C45.4862 39.1335 45.4862 37.3922 45.4862 35.6509C45.4862 35.5043 45.477 35.3576 45.4679 35.211C40.5831 35.211 35.7349 35.211 30.8318 35.211ZM38.2094 30.0604C39.859 30.0604 41.5087 30.0604 43.1584 30.0604C43.7541 30.0604 44.0198 29.7855 44.029 29.1898C44.029 29.0065 44.0382 28.8232 44.029 28.6399C44.0015 28.1541 43.7357 27.87 43.25 27.87C39.859 27.8609 36.4681 27.8609 33.0771 27.87C32.5914 27.87 32.3256 28.1541 32.2981 28.6399C32.289 28.7957 32.2981 28.9423 32.2981 29.0981C32.3073 29.813 32.5456 30.0604 33.2604 30.0604C34.9101 30.0604 36.5597 30.0604 38.2094 30.0604ZM38.1177 33.7263C39.7949 33.7263 41.4812 33.7263 43.1584 33.7263C43.7541 33.7263 44.0198 33.4514 44.029 32.8557C44.029 32.6724 44.0382 32.4891 44.029 32.3058C44.0015 31.82 43.7357 31.5359 43.25 31.5359C39.859 31.5268 36.4681 31.5268 33.0771 31.5359C32.5914 31.5359 32.3256 31.82 32.2981 32.3149C32.289 32.4707 32.2981 32.6174 32.2981 32.7732C32.2981 33.488 32.5456 33.7355 33.2604 33.7355C34.8826 33.7263 36.4956 33.7263 38.1177 33.7263Z" fill="#EE2E24"/>
<path d="M29.3654 25.6797C29.3562 32.15 24.0682 37.4106 17.5887 37.3922C11.1458 37.3739 5.89444 32.095 5.90361 25.643C5.91277 19.1727 11.2008 13.9121 17.6803 13.9305C24.1323 13.958 29.3746 19.2277 29.3654 25.6797ZM27.899 25.6614C27.899 20.0067 23.2983 15.406 17.6437 15.406C11.9982 15.406 7.37913 20.0067 7.36997 25.6522C7.3608 31.3252 11.9798 35.9442 17.6528 35.935C23.3075 35.9167 27.899 31.316 27.899 25.6614Z" fill="#F99B2A"/>
<path d="M22.0244 7.33174C21.3096 7.33174 20.5856 7.3409 19.8707 7.33174C18.6151 7.31341 17.6437 6.36027 17.6345 5.14136C17.6345 3.92245 18.5968 2.95098 19.8524 2.93265C21.3004 2.92349 22.7485 2.92349 24.2057 2.93265C25.4704 2.94182 26.4327 3.89495 26.4419 5.12303C26.451 6.34194 25.4796 7.31341 24.224 7.33174C23.4816 7.3409 22.7485 7.33174 22.0244 7.33174ZM22.0336 5.86538C22.721 5.86538 23.4083 5.86538 24.0957 5.86538C24.6272 5.86538 24.9663 5.5721 24.9663 5.1322C24.9663 4.69229 24.6364 4.40818 24.0957 4.39902C22.721 4.38985 21.3462 4.38985 19.9715 4.39902C19.4308 4.39902 19.11 4.68312 19.11 5.1322C19.11 5.5721 19.44 5.85621 19.9807 5.86538C20.6589 5.87454 21.3462 5.86538 22.0336 5.86538Z" fill="#F99B2A"/>
<path d="M7.36997 5.13216C7.36997 6.34191 6.37101 7.34087 5.1521 7.3317C3.96068 7.3317 2.98005 6.34191 2.97089 5.14133C2.97089 3.92241 3.96984 2.93262 5.18876 2.93262C6.38018 2.94178 7.36997 3.93158 7.36997 5.13216ZM5.90361 5.14133C5.90361 4.74724 5.58284 4.40814 5.17959 4.40814C4.78551 4.40814 4.44641 4.72891 4.44641 5.13216C4.44641 5.52625 4.76718 5.86534 5.17043 5.86534C5.55535 5.86534 5.89444 5.53541 5.90361 5.14133Z" fill="#F99B2A"/>
<path d="M32.2981 5.14133C32.2981 6.35108 31.2808 7.35004 30.0711 7.33171C28.8797 7.31338 27.899 6.32359 27.9082 5.123C27.9082 3.90409 28.9163 2.91429 30.1352 2.93262C31.3267 2.95095 32.3073 3.94991 32.2981 5.14133ZM30.8318 5.11384C30.8226 4.71975 30.4835 4.38982 30.0802 4.39899C29.6862 4.40815 29.3562 4.74725 29.3654 5.1505C29.3746 5.54458 29.7137 5.87451 30.1169 5.86535C30.511 5.85618 30.8409 5.50792 30.8318 5.11384Z" fill="#F99B2A"/>
<path d="M17.6437 17.5964C22.0886 17.5964 25.6995 21.2348 25.6903 25.6889C25.6812 30.1338 22.0519 33.7447 17.5887 33.7264C13.1621 33.7172 9.56036 30.088 9.56036 25.6614C9.56953 21.2165 13.1988 17.5964 17.6437 17.5964ZM24.2331 25.6889C24.2423 22.0413 21.2913 19.0811 17.6345 19.072C14.0328 19.0628 11.0542 22.0138 11.0451 25.5973C11.0267 29.2632 13.9594 32.2509 17.5979 32.26C21.2454 32.2784 24.224 29.3273 24.2331 25.6889Z" fill="#F99B2A"/>
<path d="M22.7576 25.8814C22.6843 28.475 20.4756 30.6929 17.8728 30.7845C17.2679 30.8028 16.9105 30.5462 16.9013 30.0788C16.8921 29.6297 17.2129 29.3548 17.7995 29.3273C19.7149 29.2173 21.1904 27.7418 21.3004 25.808C21.3279 25.2398 21.6212 24.9099 22.0702 24.9374C22.5285 24.9557 22.7759 25.304 22.7576 25.8814Z" fill="#F99B2A"/>
</g>
<defs>
<clipPath id="clip0_0_423">
<rect width="46.9236" height="44" fill="white" transform="translate(0.0381775)"/>
</clipPath>
</defs>
</svg>
