<svg width="211" height="80" viewBox="0 0 211 80" fill="none" xmlns="http://www.w3.org/2000/svg">
<path d="M203.396 74.4517H202.02V73.7729H205.483V74.4517H204.108V78.9057H203.396V74.4517ZM206.477 73.7729H207.256L208.747 76.4221L210.238 73.7729H211V78.9057H210.304V74.9816L208.78 77.7136H208.697L207.173 74.9816V78.9057H206.477L206.477 73.7729Z" fill="#EE2E24"/>
<path d="M199.701 0H0V80H199.701V0Z" fill="white"/>
<path d="M198.568 1.13362H1.13333V65.9103H198.568V1.13362Z" fill="#EE2E24"/>
<path d="M198.568 69.1493H1.13333V78.8664H198.568V69.1493Z" fill="#F99B2A"/>
<path d="M42.6123 23.8969H48.8227V48.0119H42.6123V23.8969ZM59.646 36.2859C62.1017 36.2859 63.8549 35.078 63.8549 32.5723C63.8549 30.1183 62.2057 29.0142 59.6844 29.0142H57.9051V36.2859H59.646ZM102.654 42.5181H111.009V48.0119H96.353V23.8969H102.654V42.5181ZM113.024 23.8969H128.888V29.3777H119.234V33.3768H128.46V38.4414H119.234V42.5181H128.914V48.0119H113.024V23.8969ZM166.764 35.4929L175.327 23.8969H166.531L158.604 34.9996V23.8969H150.911V48.0119H158.604V36.9092L172.286 54.5439C168.737 56.7168 164.65 57.8507 160.488 57.8169C157.598 57.8747 154.727 57.3486 152.046 56.27C149.365 55.1915 146.93 53.5828 144.886 51.5404C142.843 49.498 141.233 47.0641 140.154 44.3847C139.075 41.7053 138.548 38.8356 138.606 35.9479C138.62 30.1569 140.931 24.6078 145.033 20.5178C149.135 16.4277 154.693 14.1308 160.487 14.1308C166.281 14.1308 171.839 16.4277 175.941 20.5178C180.043 24.6078 182.354 30.1569 182.368 35.9479C182.409 40.8351 180.829 45.5983 177.873 49.4921L166.764 35.4929ZM70.0147 31.8704C70.0642 33.3452 69.6629 34.8 68.8644 36.0412C68.0659 37.2825 66.9081 38.2511 65.545 38.8183L71.6917 48.0119H64.3623L57.9051 37.9089V48.0119H51.6947V23.8969H59.4515C66.2339 23.8969 70.0147 26.5725 70.0147 31.8704ZM30.1512 29.1699C29.2707 29.1674 28.3987 29.3427 27.5877 29.6854C26.7767 30.0281 26.0433 30.5311 25.4317 31.1642C24.82 31.7972 24.3427 32.5473 24.0284 33.3694C23.714 34.1914 23.5692 35.0685 23.6025 35.9479C23.5681 36.8276 23.7121 37.7052 24.0261 38.5278C24.34 39.3504 24.8172 40.101 25.4291 40.7344C26.0409 41.3678 26.7747 41.8709 27.5863 42.2134C28.3978 42.5558 29.2703 42.7306 30.1512 42.7272C31.3377 42.7224 32.5026 42.4099 33.5321 41.8204C34.5616 41.2308 35.4203 40.3844 36.0244 39.3637L40.8184 42.4936C39.6941 44.34 38.1059 45.8603 36.2117 46.9035C34.3175 47.9467 32.1832 48.4764 30.0207 48.4401C28.3645 48.4646 26.7199 48.1598 25.1827 47.5433C23.6454 46.9268 22.2461 46.011 21.0662 44.8492C19.8863 43.6873 18.9494 42.3026 18.3098 40.7755C17.6703 39.2485 17.3409 37.6096 17.3409 35.9541C17.3409 34.2987 17.6703 32.6598 18.3098 31.1327C18.9494 29.6057 19.8863 28.2209 21.0662 27.0591C22.2461 25.8972 23.6454 24.9814 25.1827 24.365C26.7199 23.7485 28.3645 23.4437 30.0207 23.4682C32.192 23.4078 34.3407 23.9227 36.2485 24.9606C38.1563 25.9985 39.7553 27.5224 40.8832 29.3777L35.9707 32.5983C35.3967 31.5583 34.5538 30.6915 33.53 30.0884C32.5062 29.4853 31.3396 29.168 30.1512 29.1699ZM84.0618 29.1699C83.1812 29.1673 82.3091 29.3425 81.498 29.6852C80.6869 30.0278 79.9534 30.5308 79.3417 31.1639C78.7299 31.797 78.2526 32.5471 77.9382 33.3692C77.6238 34.1913 77.479 35.0684 77.5123 35.9479C77.4779 36.8277 77.6219 37.7053 77.9359 38.528C78.2498 39.3507 78.7272 40.1013 79.3391 40.7347C79.951 41.3681 80.6849 41.8712 81.4966 42.2136C82.3082 42.556 83.1808 42.7307 84.0618 42.7272C85.2481 42.7224 86.4129 42.4099 87.4422 41.8204C88.4715 41.2308 89.3301 40.3843 89.9339 39.3637L94.729 42.4936C93.2917 44.7788 91.1487 46.5338 88.6243 47.493C86.0999 48.4522 83.3315 48.5634 80.7382 47.8096C78.1449 47.0559 75.8679 45.4784 74.2519 43.3158C72.6359 41.1532 71.7688 38.5233 71.7819 35.8242C71.795 33.1251 72.6876 30.5037 74.3245 28.3569C75.9615 26.2101 78.2537 24.6547 80.8542 23.9261C83.4547 23.1976 86.2218 23.3356 88.7368 24.3193C91.2518 25.3029 93.3777 27.0787 94.7927 29.3777L89.8817 32.5983C89.3076 31.5584 88.4646 30.6917 87.4409 30.0886C86.4171 29.4855 85.2501 29.1683 84.0618 29.1699Z" fill="white"/>
</svg>
