<svg width="45" height="44" viewBox="0 0 45 44" fill="none" xmlns="http://www.w3.org/2000/svg">
<g clip-path="url(#clip0_0_434)">
<path d="M44.2071 13.2312C43.8612 13.2312 43.5808 13.5115 43.5808 13.8574V39.0877C43.5808 39.4203 43.3102 39.6909 42.9776 39.6909H25.894C25.5481 39.6909 25.2678 39.9712 25.2678 40.3171C25.2678 40.6629 25.5481 40.9433 25.894 40.9433H42.9777C44.0009 40.9433 44.8333 40.1109 44.8333 39.0878V13.8574C44.8333 13.5116 44.553 13.2312 44.2071 13.2312Z" fill="#EE2E24"/>
<path d="M42.9777 0.545898H2.68887C1.6657 0.545898 0.833313 1.37829 0.833313 2.40146V39.0876C0.833313 40.1108 1.6657 40.9431 2.68887 40.9431H4.32563C4.67153 40.9431 4.95186 40.6628 4.95186 40.3169C4.95186 39.9711 4.67153 39.6907 4.32563 39.6907H2.68887C2.35629 39.6907 2.08568 39.4201 2.08568 39.0875V2.40146C2.08568 2.06888 2.35629 1.79826 2.68887 1.79826H42.9777C43.3102 1.79826 43.5809 2.06888 43.5809 2.40146V9.93275C43.5809 10.2786 43.8612 10.559 44.2071 10.559C44.553 10.559 44.8333 10.2786 44.8333 9.93275V2.40146C44.8332 1.37829 44.0008 0.545898 42.9777 0.545898Z" fill="#EE2E24"/>
<path d="M25.5169 26.9254C25.5169 25.9734 24.7425 25.199 23.7905 25.199H23.5521H6.04689C5.09496 25.199 4.3205 25.9734 4.3205 26.9254C4.3205 27.8773 5.09496 28.6518 6.04689 28.6518H7.14457L5.72815 41.8864C5.6857 42.2831 5.8085 42.6643 6.07413 42.9598C6.35627 43.2737 6.77512 43.4539 7.22329 43.4539H22.9963C23.4445 43.4539 23.8633 43.2738 24.1455 42.9598C24.411 42.6644 24.5339 42.2831 24.4914 41.8864L23.075 28.6518H23.7905C24.7424 28.6518 25.5169 27.8773 25.5169 26.9254ZM6.04689 27.3994C5.78547 27.3994 5.57286 27.1868 5.57286 26.9254C5.57286 26.664 5.78547 26.4513 6.04689 26.4513H7.38004L7.27854 27.3994H6.04689ZM7.22329 42.2014C7.12996 42.2014 7.05064 42.1727 7.00561 42.1226C6.97931 42.0933 6.96908 42.0606 6.97338 42.0196L8.63953 26.4513H15.689L16.4897 42.2014H7.22329ZM17.7436 42.2014L16.9429 26.4513H18.4965L19.7445 42.2014H17.7436ZM23.2462 42.0197C23.2505 42.0606 23.2404 42.0933 23.214 42.1226C23.169 42.1727 23.0896 42.2014 22.9963 42.2014H21.0008L19.7528 26.4513H21.5801L23.2462 42.0197ZM22.941 27.3994L22.8395 26.4513H23.7905C24.0518 26.4513 24.2644 26.6639 24.2644 26.9254C24.2644 27.1868 24.0518 27.3994 23.7905 27.3994H22.941Z" fill="#EE2E24"/>
<path d="M33.1459 25.199H29.9278C29.2565 25.199 28.7103 25.7452 28.7103 26.4165V29.6346C28.7103 30.306 29.2565 30.8521 29.9278 30.8521H33.1459C33.8173 30.8521 34.3635 30.306 34.3635 29.6346V26.4165C34.3635 25.7452 33.8173 25.199 33.1459 25.199ZM33.1111 29.5998H29.9626V26.4514H33.1111V29.5998Z" fill="#F99B2A"/>
<path d="M40.1285 25.199H36.9104C36.2391 25.199 35.6929 25.7452 35.6929 26.4165V29.6346C35.6929 30.306 36.2391 30.8521 36.9104 30.8521H40.1285C40.7999 30.8521 41.3461 30.306 41.3461 29.6346V26.4165C41.3461 25.7452 40.7999 25.199 40.1285 25.199ZM40.0937 29.5998H36.9452V26.4514H40.0937V29.5998Z" fill="#F99B2A"/>
<path d="M33.1459 32.0342H29.9278C29.2565 32.0342 28.7103 32.5804 28.7103 33.2517V36.4698C28.7103 37.1412 29.2565 37.6874 29.9278 37.6874H33.1459C33.8173 37.6874 34.3635 37.1412 34.3635 36.4698V33.2517C34.3635 32.5803 33.8173 32.0342 33.1459 32.0342ZM33.1111 36.4349H29.9626V33.2865H33.1111V36.4349Z" fill="#F99B2A"/>
<path d="M40.1285 32.0342H36.9104C36.2391 32.0342 35.6929 32.5804 35.6929 33.2517V36.4698C35.6929 37.1412 36.2391 37.6874 36.9104 37.6874H40.1285C40.7999 37.6874 41.3461 37.1412 41.3461 36.4698V33.2517C41.3461 32.5803 40.7999 32.0342 40.1285 32.0342ZM40.0937 36.4349H36.9452V33.2865H40.0937V36.4349Z" fill="#EE2E24"/>
<path d="M41.3461 5.88988C41.3461 4.89576 40.5372 4.08691 39.5431 4.08691H6.12346C5.12934 4.08691 4.3205 4.89576 4.3205 5.88988V20.0018C4.3205 20.9959 5.12934 21.8048 6.12346 21.8048H39.5431C40.5372 21.8048 41.3461 20.996 41.3461 20.0018V5.88988ZM40.0937 20.0018C40.0937 20.3054 39.8467 20.5524 39.5431 20.5524H6.12346C5.81984 20.5524 5.57286 20.3054 5.57286 20.0018V5.88988C5.57286 5.58626 5.81984 5.33928 6.12346 5.33928H39.5431C39.8467 5.33928 40.0937 5.58626 40.0937 5.88988V20.0018Z" fill="#EE2E24"/>
<path d="M16.894 16.0292L14.9921 9.82525C14.8803 9.46929 14.4226 9.29639 13.9547 9.29639C13.4869 9.29639 13.0293 9.46929 12.9174 9.82525L11.0257 16.0292C11.0155 16.0699 11.0054 16.1106 11.0054 16.1411C11.0054 16.5174 11.585 16.792 12.0225 16.792C12.2767 16.792 12.4801 16.7106 12.5412 16.4971L12.8869 15.2258H15.0328L15.3786 16.4971C15.4396 16.7106 15.643 16.792 15.8973 16.792C16.3346 16.792 16.9143 16.5174 16.9143 16.1411C16.9143 16.1106 16.9042 16.0699 16.894 16.0292ZM13.2122 14.0053L13.9547 11.2796L14.6972 14.0053H13.2122Z" fill="#F99B2A"/>
<path d="M24.3385 9.35693H19.9449C19.6092 9.35693 19.4669 9.72303 19.4669 10.0587C19.4669 10.4452 19.6398 10.7807 19.9449 10.7807H21.3485V16.3033C21.3485 16.6288 21.7452 16.7915 22.1418 16.7915C22.5384 16.7915 22.935 16.6288 22.935 16.3033V10.7807H24.3385C24.6437 10.7807 24.8166 10.4452 24.8166 10.0587C24.8166 9.72303 24.6742 9.35693 24.3385 9.35693Z" fill="#F99B2A"/>
<path d="M33.8679 9.35693C33.2983 9.35693 33.0543 9.41795 32.6373 10.1502L31.5898 11.9809L30.5422 10.1502C30.1253 9.41795 29.8812 9.35693 29.3117 9.35693C28.915 9.35693 28.5184 9.57049 28.5184 10.1502V16.3033C28.5184 16.6288 28.915 16.7915 29.3117 16.7915C29.7083 16.7915 30.1049 16.6288 30.1049 16.3033V12.3878L31.0711 14.1574C31.1931 14.3913 31.3864 14.4523 31.5694 14.4523C31.7627 14.4523 31.9661 14.3812 32.0983 14.1574L33.0746 12.4894V16.3033C33.0746 16.6288 33.4712 16.7915 33.8679 16.7915C34.2645 16.7915 34.6611 16.6288 34.6611 16.3033V10.1502C34.6611 9.57049 34.2746 9.35693 33.8679 9.35693Z" fill="#F99B2A"/>
</g>
<defs>
<clipPath id="clip0_0_434">
<rect width="44" height="44" fill="white" transform="translate(0.833313)"/>
</clipPath>
</defs>
</svg>
