<svg width="51" height="38" viewBox="0 0 51 38" fill="none" xmlns="http://www.w3.org/2000/svg">
<path d="M15.8989 10.9436H7.49206C6.47829 10.9436 5.65349 11.7684 5.65349 12.7822V19.4191C5.65349 20.4329 6.47829 21.2577 7.49206 21.2577H15.8988C16.9126 21.2577 17.7374 20.4329 17.7374 19.4191V12.7822C17.7374 11.7684 16.9127 10.9436 15.8989 10.9436ZM16.2725 12.7822V15.3682H12.4278V12.4084H15.8988C16.105 12.4084 16.2725 12.5761 16.2725 12.7822ZM7.11833 19.4191V12.7822C7.11833 12.5761 7.28601 12.4084 7.49206 12.4084H10.963V19.7928H7.49206C7.28601 19.7928 7.11833 19.6251 7.11833 19.4191ZM15.8989 19.7928H12.4279V16.8331H16.2726V19.419C16.2725 19.6251 16.105 19.7928 15.8989 19.7928Z" fill="#F99B2A"/>
<path d="M5.65349 29.7197C5.65349 30.1243 5.98142 30.4521 6.38591 30.4521H27.9388C28.3433 30.4521 28.6713 30.1243 28.6713 29.7197C28.6713 29.3151 28.3433 28.9873 27.9388 28.9873H6.38591C5.98142 28.9873 5.65349 29.3151 5.65349 29.7197Z" fill="#F99B2A"/>
<path d="M6.38591 31.7766C5.98142 31.7766 5.65349 32.1044 5.65349 32.509C5.65349 32.9136 5.98142 33.2415 6.38591 33.2415H17.1624C17.5669 33.2415 17.8948 32.9136 17.8948 32.509C17.8948 32.1044 17.5669 31.7766 17.1624 31.7766H6.38591Z" fill="#F99B2A"/>
<path d="M19.393 26.225V24.4543C19.393 24.0498 19.0651 23.7219 18.6606 23.7219C18.2561 23.7219 17.9282 24.0498 17.9282 24.4543V26.225C17.9282 26.6296 18.2561 26.9575 18.6606 26.9575C19.0651 26.9575 19.393 26.6296 19.393 26.225Z" fill="#EE2E24"/>
<path d="M22.7408 26.225V24.4543C22.7408 24.0498 22.4128 23.7219 22.0084 23.7219C21.6039 23.7219 21.2759 24.0498 21.2759 24.4543V26.225C21.2759 26.6296 21.6039 26.9575 22.0084 26.9575C22.4128 26.9575 22.7408 26.6296 22.7408 26.225Z" fill="#EE2E24"/>
<path d="M26.0883 26.225V24.4543C26.0883 24.0498 25.7604 23.7219 25.3559 23.7219C24.9514 23.7219 24.6235 24.0498 24.6235 24.4543V26.225C24.6235 26.6296 24.9514 26.9575 25.3559 26.9575C25.7604 26.9575 26.0883 26.6296 26.0883 26.225Z" fill="#EE2E24"/>
<path d="M29.4361 26.225V24.4543C29.4361 24.0498 29.1082 23.7219 28.7037 23.7219C28.2992 23.7219 27.9713 24.0498 27.9713 24.4543V26.225C27.9713 26.6296 28.2992 26.9575 28.7037 26.9575C29.1082 26.9575 29.4361 26.6296 29.4361 26.225Z" fill="#EE2E24"/>
<path d="M33.5506 24.4543V26.225C33.5506 26.6296 33.8786 26.9575 34.2831 26.9575C34.6876 26.9575 35.0155 26.6296 35.0155 26.225V24.4543C35.0155 24.0498 34.6876 23.7219 34.2831 23.7219C33.8786 23.7219 33.5506 24.0499 33.5506 24.4543Z" fill="#EE2E24"/>
<path d="M36.8983 24.4543V26.225C36.8983 26.6296 37.2262 26.9575 37.6307 26.9575C38.0352 26.9575 38.3631 26.6296 38.3631 26.225V24.4543C38.3631 24.0498 38.0352 23.7219 37.6307 23.7219C37.2262 23.7219 36.8983 24.0499 36.8983 24.4543Z" fill="#EE2E24"/>
<path d="M40.246 24.4543V26.225C40.246 26.6296 40.5739 26.9575 40.9784 26.9575C41.3829 26.9575 41.7108 26.6296 41.7108 26.225V24.4543C41.7108 24.0498 41.3829 23.7219 40.9784 23.7219C40.5739 23.7219 40.246 24.0499 40.246 24.4543Z" fill="#EE2E24"/>
<path d="M6.38591 26.9575C6.7904 26.9575 7.11833 26.6296 7.11833 26.225V24.4543C7.11833 24.0498 6.7904 23.7219 6.38591 23.7219C5.98142 23.7219 5.65349 24.0498 5.65349 24.4543V26.225C5.65349 26.6296 5.98142 26.9575 6.38591 26.9575Z" fill="#EE2E24"/>
<path d="M10.466 26.225V24.4543C10.466 24.0498 10.1381 23.7219 9.73357 23.7219C9.32908 23.7219 9.00115 24.0498 9.00115 24.4543V26.225C9.00115 26.6296 9.32908 26.9575 9.73357 26.9575C10.1381 26.9575 10.466 26.6296 10.466 26.225Z" fill="#EE2E24"/>
<path d="M13.8136 26.225V24.4543C13.8136 24.0498 13.4857 23.7219 13.0812 23.7219C12.6767 23.7219 12.3488 24.0498 12.3488 24.4543V26.225C12.3488 26.6296 12.6767 26.9575 13.0812 26.9575C13.4857 26.9575 13.8136 26.6296 13.8136 26.225Z" fill="#EE2E24"/>
<path d="M50.1667 7.85C50.1667 3.74707 46.8287 0.40918 42.7258 0.40918C39.0509 0.40918 35.9919 3.08769 35.3931 6.59453H16.4411C16.0366 6.59453 15.7086 6.92236 15.7086 7.32695C15.7086 7.73154 16.0366 8.05937 16.4411 8.05937H35.2879C35.4 12.0915 38.7279 15.2893 42.723 15.2907C42.724 15.2907 42.7249 15.2908 42.7258 15.2908C42.7268 15.2908 42.7258 15.2908 42.7258 15.2908C42.7266 15.2908 42.7274 15.2907 42.7283 15.2907C43.7982 15.2903 44.8355 15.055 45.7328 14.658V26.9751C45.7328 27.3797 46.0607 27.7075 46.4652 27.7075C46.8697 27.7075 47.1976 27.3797 47.1976 26.9751V13.7928C48.9995 12.4336 50.1667 10.2757 50.1667 7.85ZM42.7258 1.87402C46.0211 1.87402 48.7018 4.55488 48.7018 7.85C48.7018 11.1515 46.0134 13.8259 42.7258 13.8259C39.3662 13.8259 36.6188 11.0295 36.756 7.60791C36.9093 4.31689 39.5974 1.87402 42.7258 1.87402Z" fill="#EE2E24"/>
<path d="M40.6998 10.6688C40.9477 11.0706 41.5063 11.1366 41.841 10.8021L46.5783 6.06475C46.8643 5.77861 46.8643 5.31494 46.5783 5.02891C46.2922 4.74297 45.8285 4.74297 45.5425 5.02891L41.46 9.11152L39.8803 6.55176C39.668 6.20752 39.2167 6.10078 38.8724 6.31309C38.5282 6.52559 38.4214 6.97686 38.6338 7.321L40.6998 10.6688Z" fill="#F99B2A"/>
<path d="M46.4652 29.6608C46.0607 29.6608 45.7328 29.9887 45.7328 30.3933V33.414C45.7328 34.9094 44.5162 36.126 43.0207 36.126H4.34361C2.8481 36.126 1.6315 34.9094 1.6315 33.414V10.7717C1.6315 9.27627 2.8481 8.05957 4.34361 8.05957H13.0231C13.4276 8.05957 13.7555 7.73174 13.7555 7.32715C13.7555 6.92256 13.4276 6.59473 13.0231 6.59473H4.34361C2.04048 6.59473 0.166656 8.46846 0.166656 10.7717V33.4139C0.166656 35.717 2.04048 37.5907 4.34361 37.5907H43.0207C45.3238 37.5907 47.1976 35.7169 47.1976 33.4139V30.3932C47.1976 29.9887 46.8697 29.6608 46.4652 29.6608Z" fill="#EE2E24"/>
<path d="M42.5968 20.1317V17.9666C42.5968 17.3458 42.0916 16.8406 41.4707 16.8406H33.9912C33.3703 16.8406 32.8652 17.3458 32.8652 17.9666V20.1317C32.8652 20.7526 33.3703 21.2578 33.9912 21.2578H41.4707C42.0916 21.2578 42.5968 20.7526 42.5968 20.1317ZM41.132 19.7929H34.3299V18.3054H41.132V19.7929Z" fill="#EE2E24"/>
</svg>
