<svg width="41" height="46" viewBox="0 0 41 46" fill="none" xmlns="http://www.w3.org/2000/svg">
<g clip-path="url(#clip0_0_393)">
<path d="M2.88713 45.5503C2.80785 45.515 2.73739 45.4798 2.65811 45.4534C1.3192 45.0482 0.499992 43.9647 0.499992 42.5641C0.499992 37.1909 0.499992 31.8176 0.499992 26.4443C0.499992 21.3265 0.508801 16.1999 0.508801 11.0821C0.508801 10.1748 0.781869 9.35559 1.50418 8.77422C1.85652 8.48353 2.29695 8.28093 2.72858 8.12238C3.0545 8.00786 3.17782 7.88454 3.18663 7.51458C3.23067 5.30361 4.60482 3.63878 6.69246 3.22478C8.35729 2.89005 10.0926 3.62997 11.0527 5.06578C11.132 5.1891 11.2113 5.31242 11.2994 5.47098C11.4491 5.43574 11.5989 5.40932 11.7486 5.36527C15.5628 4.21134 19.3769 3.0486 23.191 1.89467C23.332 1.85063 23.4729 1.80659 23.6138 1.77135C24.019 1.69207 24.3538 1.87706 24.4507 2.2294C24.5476 2.59056 24.3626 2.92528 23.9662 3.0486C23.147 3.31286 22.3102 3.5507 21.4822 3.80615C17.5095 5.01293 13.5456 6.2109 9.57288 7.41769C9.49361 7.44411 9.40552 7.47935 9.29982 7.52339C9.29982 8.85349 9.29982 10.1836 9.29982 11.5225C9.29982 12.6676 9.29982 13.8128 9.29982 14.9579C9.29982 16.4377 8.53346 17.5828 7.25621 18.0409C5.97015 18.4989 4.68409 18.0849 3.74157 16.9222C3.70633 16.8782 3.66229 16.8429 3.53016 16.702C3.6711 17.1777 3.76799 17.5388 3.8737 17.9C4.7898 20.9301 5.7147 23.9603 6.6308 26.9817C6.6308 26.9993 6.63961 27.0081 6.63961 27.0257C6.80697 27.5806 6.66603 27.9418 6.24322 28.0739C5.83802 28.1972 5.52972 27.9682 5.35355 27.3957C5.13333 26.6822 4.92193 25.9599 4.71052 25.2464C3.81204 22.2867 2.91356 19.327 2.01508 16.3673C1.97103 16.2351 1.92699 16.103 1.81248 15.9797C1.81248 16.1206 1.81248 16.2527 1.81248 16.3937C1.81248 25.0878 1.81248 33.7731 1.81248 42.4672C1.81248 43.5683 2.45551 44.2201 3.55659 44.2201C12.145 44.2201 20.7334 44.2201 29.3218 44.2201C30.2644 44.2201 30.8193 43.7797 31.0483 42.8548C31.1628 42.3968 31.4711 42.1854 31.8763 42.2822C32.2463 42.3703 32.4401 42.7139 32.3432 43.1455C32.1142 44.2378 31.4799 44.9865 30.4317 45.3829C30.282 45.4357 30.1322 45.4974 29.9913 45.5503C20.9713 45.5503 11.9336 45.5503 2.88713 45.5503ZM9.97808 5.9026C9.26458 4.75748 7.9609 4.25539 6.69246 4.59892C5.41521 4.94246 4.54315 6.05235 4.52554 7.47054C4.49911 10.0074 4.50792 12.5531 4.52554 15.09C4.53435 16.1382 5.26546 16.8782 6.24322 16.8782C7.22979 16.8782 7.97852 16.103 7.97852 15.0548C7.98733 12.5884 7.97852 10.1219 7.97852 7.65552C7.97852 7.18866 7.79354 6.95083 7.4412 6.95083C7.08885 6.95083 6.91268 7.17985 6.91268 7.65552C6.91268 9.10894 6.91268 10.5624 6.91268 12.0158C6.91268 12.6764 6.92148 13.3371 6.90387 13.9977C6.88625 14.5439 6.44582 14.8698 5.98777 14.6848C5.63543 14.5351 5.56496 14.2356 5.56496 13.892C5.57376 11.778 5.58257 9.66389 5.58257 7.54982C5.58257 6.74823 5.89088 6.14924 6.61318 5.80571C7.3443 5.46217 8.03137 5.55906 8.6744 6.06996C8.78011 6.14924 8.96509 6.19329 9.09722 6.16686C9.39671 6.1052 9.66978 5.9995 9.97808 5.9026ZM3.1602 9.46129C2.20006 9.55818 1.65392 10.4743 1.95342 11.4961C2.29695 12.6588 2.65811 13.8216 3.01045 14.9843C3.03688 15.0636 3.08092 15.1429 3.1602 15.3102C3.1602 13.293 3.1602 11.3728 3.1602 9.46129Z" fill="#EE2E24"/>
<path d="M28.8726 0.449951C28.9078 0.467568 28.9431 0.502803 28.9871 0.511612C30.1763 0.784679 30.8898 1.53341 31.2421 2.68734C34.193 12.4209 37.1439 22.1456 40.0948 31.8792C40.2534 32.3989 40.4383 32.9186 40.4912 33.4559C40.6233 34.8565 39.7865 36.0368 38.3859 36.4773C36.5537 37.0498 34.7127 37.6048 32.8717 38.1421C32.5106 38.2478 32.3784 38.3975 32.4049 38.7763C32.4401 39.2608 32.4225 39.7453 32.4049 40.2297C32.3961 40.6525 32.1406 40.908 31.7618 40.908C31.3919 40.908 31.11 40.6525 31.0924 40.2385C31.0748 39.7453 31.0924 39.2432 31.0924 38.697C29.9825 39.0318 28.9166 39.3489 27.8596 39.6748C23.1382 41.1106 18.4079 42.5376 13.6865 43.9734C11.8631 44.5195 10.348 43.718 9.8019 41.9122C8.63916 38.0716 7.47642 34.2311 6.32249 30.3817C6.25202 30.1615 6.2256 29.8532 6.3313 29.677C6.42819 29.5008 6.74531 29.3246 6.92148 29.3599C7.14169 29.4039 7.42357 29.6241 7.51166 29.8355C7.7583 30.4433 7.91685 31.0864 8.11064 31.7206C9.09721 34.971 10.0838 38.2302 11.0703 41.4806C11.4227 42.6345 12.1626 43.0397 13.3254 42.6962C20.5925 40.5028 27.8508 38.3006 35.1179 36.0985C36.0428 35.8166 36.9677 35.5435 37.8926 35.2529C38.9849 34.9093 39.3989 34.1254 39.073 33.0419C36.0516 23.0881 33.0391 13.1344 30.0177 3.18063C29.6566 1.99146 28.8902 1.58626 27.6922 1.95623C27.3399 2.06193 26.9964 2.17644 26.6352 2.27334C26.2124 2.38785 25.8689 2.21168 25.7543 1.84172C25.6398 1.48056 25.8424 1.13702 26.2564 0.996086C26.8114 0.811105 27.3663 0.643741 27.9213 0.467568C28.2296 0.449951 28.5467 0.449951 28.8726 0.449951Z" fill="#EE2E24"/>
<path d="M17.1659 11.2583C17.5887 11.2848 18.0027 11.276 18.3991 11.3552C18.9276 11.4609 19.1567 11.8485 19.051 12.3154C18.9365 12.8087 18.6193 12.9496 18.0556 12.932C17.5887 12.9144 17.1043 13.0025 16.655 13.1258C16.3203 13.2139 16.1353 13.4957 16.1882 13.8745C16.241 14.2621 16.47 14.4911 16.84 14.5352C17.3949 14.6056 17.9499 14.6497 18.496 14.7113C20.7598 14.9668 21.3148 17.7591 20.4427 18.8866C20.337 19.0276 20.2313 19.1773 20.0992 19.283C19.8173 19.4856 19.6588 19.6706 19.7733 20.067C19.879 20.4281 19.5619 20.8157 19.1831 20.9302C18.8131 21.0447 18.3727 20.8862 18.2318 20.4986C18.1084 20.1463 17.897 20.1286 17.5799 20.0846C17.1307 20.0141 16.6638 19.882 16.2586 19.6706C15.827 19.4416 15.7301 18.9835 15.9151 18.5695C16.1177 18.1115 16.5141 17.9793 17.0074 18.2612C17.5183 18.5607 18.0292 18.5871 18.5665 18.3669C18.9276 18.2172 19.2095 17.9969 19.2007 17.5565C19.1831 17.0985 19.0598 16.6668 18.5929 16.4731C18.311 16.3585 18.0027 16.3321 17.6944 16.2881C17.2452 16.2264 16.7872 16.2 16.3467 16.1207C15.3866 15.9445 14.8669 15.2927 14.629 14.3854C14.3912 13.4781 14.6202 12.7118 15.3337 12.0864C15.4394 11.9983 15.5275 11.8045 15.5099 11.6724C15.413 11.0381 15.5804 10.6241 16.056 10.492C16.5141 10.3599 16.8752 10.5801 17.1219 11.1526C17.1219 11.2143 17.1571 11.2495 17.1659 11.2583Z" fill="#F99B2A"/>
<path d="M13.5808 34.0461C13.1492 34.0373 12.929 33.8347 12.8673 33.4911C12.8056 33.1212 12.9818 32.8657 13.343 32.7512C14.1534 32.4958 14.9638 32.2491 15.783 32.0025C21.165 30.3729 26.5471 28.7345 31.9292 27.1049C32.0173 27.0785 32.0966 27.052 32.1846 27.0344C32.6603 26.9023 32.995 27.0432 33.1184 27.4132C33.2505 27.8096 33.0567 28.1443 32.5722 28.3029C30.5022 28.9371 28.4234 29.5713 26.3533 30.1967C22.2749 31.4387 18.1965 32.6719 14.1181 33.9052C13.9067 33.9668 13.7041 34.0109 13.5808 34.0461Z" fill="#F99B2A"/>
<path d="M12.4533 30.4081C12.0921 30.3817 11.8367 30.2232 11.7662 29.8708C11.6958 29.4832 11.8719 29.2102 12.2419 29.0957C13.1932 28.7962 14.1446 28.5055 15.0959 28.2236C20.3194 26.6381 25.5517 25.0525 30.7752 23.467C30.9162 23.4229 31.0571 23.3789 31.1981 23.3524C31.6033 23.282 31.9468 23.467 32.0173 23.8281C32.0965 24.2157 31.9292 24.4888 31.5592 24.6121C30.9602 24.8059 30.3612 24.9908 29.7534 25.1758C24.1335 26.8847 18.5136 28.5848 12.8937 30.2848C12.744 30.3289 12.5942 30.3641 12.4533 30.4081Z" fill="#F99B2A"/>
<path d="M11.3875 26.7349C10.9735 26.7349 10.7268 26.5676 10.6564 26.224C10.5771 25.8364 10.7532 25.5634 11.132 25.4489C11.8455 25.2286 12.559 25.0084 13.2725 24.7882C18.7691 23.1234 24.2657 21.4585 29.7535 19.7937C30.3965 19.5999 30.7665 19.7056 30.8986 20.1196C31.0395 20.5777 30.8017 20.8684 30.1323 21.071C24.0807 22.9032 18.0204 24.7442 11.9688 26.5764C11.7574 26.638 11.546 26.6909 11.3875 26.7349Z" fill="#F99B2A"/>
<path d="M14.6378 37.7105C14.2767 37.6665 14.0477 37.5079 13.986 37.1732C13.9155 36.7856 14.0741 36.5126 14.4529 36.3892C15.2809 36.1338 16.1089 35.8872 16.9369 35.6405C22.3014 34.0109 27.6746 32.3813 33.0391 30.7517C33.1624 30.7165 33.2945 30.6724 33.4179 30.646C33.8054 30.5756 34.1226 30.7429 34.2283 31.0776C34.334 31.43 34.1666 31.7735 33.779 31.9057C33.2945 32.073 32.8013 32.214 32.308 32.3637C26.5736 34.1078 20.8479 35.8431 15.1135 37.5784C14.9462 37.6313 14.77 37.6753 14.6378 37.7105Z" fill="#F99B2A"/>
</g>
<defs>
<clipPath id="clip0_0_393">
<rect width="40" height="45.1002" fill="white" transform="translate(0.499992 0.449951)"/>
</clipPath>
</defs>
</svg>
