<svg width="42" height="50" viewBox="0 0 42 50" fill="none" xmlns="http://www.w3.org/2000/svg">
<path d="M11.1755 50C10.7664 49.7545 10.6027 49.4272 10.6027 48.9362C10.6027 46.072 10.6027 43.1261 10.6027 40.2619C10.6027 40.0982 10.6027 39.9346 10.6845 39.7709C10.7664 39.4436 11.0119 39.2799 11.421 39.2799C11.7484 39.2799 11.9939 39.4436 12.0757 39.8527C12.1575 40.0164 12.1575 40.2619 12.1575 40.4256C12.1575 42.7987 12.1575 45.1719 12.1575 47.6269C12.1575 47.7905 12.1575 47.9542 12.1575 48.1997C12.3212 48.1179 12.4849 48.1179 12.5667 48.036C15.0217 46.9722 17.5585 45.9902 20.0135 44.9264C20.5045 44.6809 20.9955 44.6809 21.4865 44.9264C24.1052 46.0721 26.7238 47.1359 29.3425 48.1997C29.3425 47.9542 29.3425 47.7905 29.3425 47.6269C29.3425 45.2537 29.3425 42.7987 29.3425 40.4256C29.3425 40.2619 29.3425 40.0164 29.3425 39.8527C29.4243 39.5254 29.6698 39.2799 29.9971 39.2799C30.4063 39.2799 30.6518 39.4436 30.7336 39.7709C30.8155 39.9346 30.8155 40.0982 30.8155 40.2619C30.8155 43.1261 30.8155 46.072 30.8155 48.9362C30.8155 49.3454 30.6518 49.6727 30.3245 49.9182C30.1608 49.9182 29.9971 49.9182 29.8335 49.9182C27.133 48.7725 24.4325 47.7087 21.732 46.4812C20.9955 46.1539 20.3408 46.1539 19.6043 46.4812C16.9039 47.6269 14.2034 48.7725 11.5029 49.9182C11.421 50 11.3392 50 11.1755 50Z" fill="white"/>
<path d="M39.1624 12.0295C39.1624 12.275 39.0806 12.5205 39.0806 12.766C38.8351 13.748 39.0806 14.4845 39.8989 15.1391C40.4718 15.5483 40.8809 16.203 41.1264 16.9395C41.3719 17.7578 41.2901 18.658 40.7991 19.3944C40.1444 20.3764 40.1444 21.1948 40.7991 22.1768C41.6174 23.5679 41.2901 25.2864 40.0626 26.3503C39.5716 26.7594 39.0806 27.1686 39.0806 27.8233C39.0806 28.1506 39.0806 28.4779 39.1624 28.8053C39.4898 30.4419 38.5896 31.9967 37.0348 32.4877C35.971 32.8151 35.3981 33.4697 35.2345 34.6154C35.0708 36.1702 33.5978 37.3159 32.043 37.3159C31.6338 37.3159 31.3065 37.3159 30.8973 37.3977C30.2426 37.5614 29.9153 38.0524 29.588 38.5434C28.8515 39.8527 27.624 40.4255 26.151 40.2619C25.9873 40.2619 25.7418 40.18 25.5782 40.0982C24.5962 39.6072 23.696 39.7709 22.8777 40.5074C22.223 41.0802 21.4047 41.3257 20.5863 41.3257C19.8498 41.3257 19.1952 41.0802 18.7042 40.5892C17.8858 39.7709 16.9857 39.689 15.9219 40.0982C14.4489 40.671 12.7304 40.0982 11.9939 38.7071C11.421 37.6432 10.6845 37.2341 9.53888 37.3159C7.98405 37.3977 6.59289 36.1702 6.34739 34.6154C6.18372 33.4697 5.61089 32.8151 4.54706 32.4877C2.99223 31.9967 2.09207 30.3601 2.4194 28.8053C2.6649 27.7414 2.33757 27.0049 1.51923 26.2684C0.209906 25.2046 -0.117426 23.4861 0.782737 22.0131C1.35557 21.1129 1.35557 20.2946 0.782737 19.3126C-0.117426 17.9215 0.209906 16.1211 1.51923 15.1391C2.4194 14.4845 2.6649 13.6661 2.4194 12.6023C2.09207 11.0475 2.99223 9.41081 4.46523 8.91982C5.61089 8.59248 6.10189 7.85599 6.26555 6.71032C6.51105 5.23733 7.98405 4.09166 9.45704 4.09166C9.78437 4.09166 10.1117 4.09166 10.439 4.00983C11.0937 3.84617 11.5029 3.437 11.8302 2.86417C12.8122 1.14567 14.2852 0.654676 16.0855 1.30934C16.9857 1.63667 17.7222 1.47301 18.4587 0.900175C19.9317 -0.327321 21.5683 -0.327321 22.9595 0.900175C23.696 1.55484 24.4325 1.71851 25.4145 1.30934C27.133 0.654676 28.6878 1.22751 29.6698 2.86417C30.1608 3.6825 30.8155 4.09166 31.7975 4.09166C33.7615 4.09166 34.989 5.07366 35.2345 7.03765C35.3981 8.01965 35.971 8.59248 36.8711 8.91982C38.2623 9.32898 39.0806 10.5565 39.1624 12.0295ZM9.86621 5.56466C8.55688 5.56466 7.90221 6.05566 7.73855 7.28315C7.49305 8.83798 6.67472 9.73815 5.20172 10.2291C4.13789 10.5565 3.64689 11.3748 3.89239 12.4386C4.21973 13.9116 3.81056 15.1391 2.58306 16.1211C1.6829 16.8576 1.51924 17.7578 2.09207 18.8216C2.9104 20.1309 2.9104 21.3584 2.09207 22.6678C1.4374 23.6498 1.60107 24.5499 2.58306 25.2864C3.81056 26.2684 4.21973 27.4141 3.89239 28.8871C3.64689 29.9509 4.13789 30.8511 5.20172 31.1784C6.67472 31.6694 7.49305 32.5696 7.73855 34.1244C7.90221 35.4337 8.63871 35.9247 9.86621 35.8429C11.3392 35.8429 12.403 36.4157 13.0577 37.6432C13.2214 37.8887 13.385 38.2161 13.6305 38.3797C14.2034 38.8707 14.9399 38.8707 15.6764 38.6252C16.9857 38.0524 18.2132 38.2161 19.277 39.1981C20.3408 40.0982 21.1592 40.0982 22.223 39.1981C23.2868 38.2979 24.4325 38.1342 25.66 38.6252C26.9693 39.1162 27.7058 38.8707 28.4423 37.6432C29.097 36.4157 30.1608 35.8429 31.552 35.9247C32.8613 35.9247 33.516 35.4337 33.7615 34.1244C34.007 32.6514 34.8253 31.7512 36.2165 31.2602C37.3621 30.9329 37.8531 30.1146 37.5258 28.8871C37.1985 27.4141 37.6076 26.2684 38.8351 25.2864C39.8171 24.5499 39.9808 23.6498 39.3261 22.5859C38.5896 21.3584 38.5896 20.1309 39.3261 18.9035C39.9808 17.8396 39.8171 16.9395 38.8351 16.1211C37.6894 15.221 37.2803 14.0753 37.6076 12.6023C37.8531 11.3748 37.444 10.6383 36.2165 10.2291C34.8253 9.73815 34.007 8.83798 33.7615 7.36499C33.516 6.05566 32.9431 5.48283 31.552 5.56466C30.1608 5.56466 29.097 4.99183 28.3605 3.76433C27.7058 2.61867 26.8875 2.29134 25.66 2.78234C24.4325 3.27333 23.205 3.02783 22.1412 2.12767C21.1592 1.22751 20.3408 1.22751 19.3588 2.12767C18.295 3.10967 17.0675 3.27333 15.6764 2.78234C14.5307 2.29134 13.6305 2.61867 13.0577 3.76433C12.403 4.99183 11.3392 5.56466 9.86621 5.56466Z" fill="white"/>
<path d="M20.5045 5.2373C27.7876 5.2373 34.007 10.0655 35.8073 16.9394C35.971 17.5941 36.0528 18.2488 36.2165 18.9034C36.2983 19.3944 36.0528 19.7218 35.5618 19.8036C35.1526 19.8854 34.8253 19.6399 34.7435 19.1489C34.498 17.6759 34.1706 16.2848 33.516 14.8936C31.552 10.802 28.3605 8.18329 23.9415 7.11946C16.822 5.40097 9.45704 9.65629 7.32938 16.6939C7.08388 17.5123 7.00205 18.3306 6.83838 19.1489C6.75655 19.7218 6.42922 19.9673 6.02005 19.8854C5.52905 19.8036 5.36539 19.4763 5.44722 18.9034C5.93822 15.2209 7.49304 12.0294 10.2754 9.49262C12.6485 7.28313 15.4309 5.9738 18.7042 5.4828C19.277 5.31914 20.0135 5.2373 20.5045 5.2373Z" fill="white"/>
<path d="M20.75 36.2521C14.0397 36.2521 8.06589 31.9149 6.02006 25.4501C5.69273 24.55 5.61089 23.6498 5.44723 22.6678C5.3654 22.1768 5.61089 21.8495 6.02006 21.7676C6.42923 21.6858 6.83839 21.9313 6.92022 22.4223C7.16572 24.059 7.57489 25.6138 8.39322 27.0868C10.6027 31.2603 14.1215 33.7971 18.786 34.5336C23.0413 35.1883 26.8057 34.0426 30.079 31.3421C32.6976 29.1326 34.2525 26.2685 34.8253 22.8315C34.8253 22.6678 34.9071 22.5041 34.9071 22.3405C34.989 21.9313 35.3163 21.6858 35.8073 21.7676C36.2165 21.8495 36.462 22.1768 36.3801 22.586C36.2165 24.059 35.8073 25.532 35.2345 26.8413C33.516 30.6874 30.6518 33.4698 26.8057 35.0246C24.9235 35.7611 22.6322 36.2521 20.75 36.2521Z" fill="white"/>
<path d="M16.9038 28.3961C16.0855 28.3961 15.7582 27.7414 16.0855 27.0868C17.9677 23.2406 19.9317 19.3944 21.8138 15.5483C22.3867 14.4026 22.9595 13.257 23.5323 12.1113C23.8597 11.4566 24.187 11.293 24.7598 11.5385C25.2508 11.784 25.3327 12.1931 25.0053 12.9296C22.714 17.5123 20.4227 22.0949 18.1313 26.6776C17.8858 27.0868 17.7222 27.5778 17.4767 27.9051C17.2312 28.1506 16.9857 28.3143 16.9038 28.3961Z" fill="white"/>
<path d="M22.3048 23.5679C22.3048 22.9951 22.3048 22.4223 22.3048 21.8494C22.3867 20.4583 23.0413 19.7218 24.3507 19.5581C25.0053 19.4763 25.7418 19.5581 26.3965 19.7218C27.2967 19.9673 27.7877 20.6219 27.8695 21.5221C27.9513 22.9133 27.9513 24.3863 27.8695 25.7774C27.8695 26.6776 27.2967 27.2504 26.4783 27.5777C25.5782 27.9051 24.678 27.9051 23.7778 27.5777C22.8777 27.2504 22.3867 26.5957 22.3048 25.6956C22.3048 24.9591 22.3048 24.2226 22.3048 23.5679ZM26.3965 23.5679C26.3965 22.9951 26.3965 22.4223 26.3965 21.8494C26.3965 21.1948 25.9873 20.8674 25.2508 20.7856C24.4325 20.7038 23.8597 21.0311 23.8597 21.6858C23.7778 22.9133 23.7778 24.1408 23.8597 25.3683C23.8597 26.0229 24.4325 26.3503 25.169 26.3503C25.9873 26.3503 26.3965 25.9411 26.3965 25.2864C26.4783 24.7136 26.3965 24.1408 26.3965 23.5679Z" fill="white"/>
<path d="M18.6223 16.4485C18.6223 17.1031 18.6223 17.676 18.6223 18.3306C18.5405 19.5581 17.8858 20.3765 16.6584 20.5401C15.9219 20.622 15.1854 20.5401 14.5307 20.3765C13.6305 20.131 13.1395 19.4763 13.0577 18.5761C12.9759 17.185 12.9759 15.7938 13.0577 14.4026C13.1395 13.3388 13.7942 12.6841 14.7762 12.4387C15.5945 12.275 16.4129 12.275 17.1494 12.5205C18.0495 12.8478 18.5405 13.5025 18.6223 14.4845C18.6223 15.0573 18.6223 15.712 18.6223 16.4485ZM14.5307 16.3666C14.5307 16.9395 14.5307 17.4305 14.5307 18.0033C14.5307 18.8216 14.9399 19.149 15.84 19.2308C16.6584 19.2308 17.1494 18.8216 17.1494 18.0033C17.1494 16.9395 17.1494 15.8756 17.1494 14.8118C17.1494 13.9935 16.6584 13.6661 15.84 13.6661C15.0217 13.6661 14.5307 14.0753 14.5307 14.8118C14.5307 15.3028 14.5307 15.8756 14.5307 16.3666Z" fill="white"/>
</svg>
