<svg width="17" height="13" viewBox="0 0 17 13" fill="none" xmlns="http://www.w3.org/2000/svg">
<path d="M16.3342 2.70703C16.1584 2.00391 15.6018 1.44727 14.928 1.27148C13.6682 0.919922 8.68774 0.919922 8.68774 0.919922C8.68774 0.919922 3.67798 0.919922 2.41821 1.27148C1.74438 1.44727 1.18774 2.00391 1.01196 2.70703C0.6604 3.9375 0.6604 6.57422 0.6604 6.57422C0.6604 6.57422 0.6604 9.18164 1.01196 10.4414C1.18774 11.1445 1.74438 11.6719 2.41821 11.8477C3.67798 12.1699 8.68774 12.1699 8.68774 12.1699C8.68774 12.1699 13.6682 12.1699 14.928 11.8477C15.6018 11.6719 16.1584 11.1445 16.3342 10.4414C16.6858 9.18164 16.6858 6.57422 16.6858 6.57422C16.6858 6.57422 16.6858 3.9375 16.3342 2.70703ZM7.04712 8.94727V4.20117L11.2073 6.57422L7.04712 8.94727Z" fill="white"/>
</svg>
